<?xml version="1.0" encoding="UTF-8"?>
<svg id="Layer_2" data-name="Layer 2" xmlns="http://www.w3.org/2000/svg" viewBox="0 0 75 75">
  <defs>
    <style>
      .cls-1 {
        fill: none;
      }

      .cls-1, .cls-2 {
        stroke-width: 0px;
      }

      .cls-2 {
        fill: #000024;
      }
    </style>
  </defs>
  <g id="Layer_1-2" data-name="Layer 1">
    <g>
      <rect class="cls-1" width="75" height="75"/>
      <path class="cls-2" d="m72.35,40c-1.4-2.36-3.19-4.2-5.43-5.56-2.23-1.31-4.64-2.06-7.18-2.14v-.66c2.32-.53,4.42-1.4,6.22-2.67,1.84-1.23,3.28-2.84,4.29-4.81,1.05-1.97,1.58-4.25,1.58-6.87,0-3.37-.83-6.3-2.49-8.88-1.62-2.58-4.11-4.6-7.4-6.08C58.65.87,54.53.12,49.63.12H16.15C3.33.12,0,3.49,0,15.57v35.98c0,12.08,3.5,15.45,16.15,15.45h35.28c4.99,0,9.23-.83,12.65-2.41,3.41-1.62,6-3.81,7.75-6.61,1.75-2.76,2.63-5.91,2.63-9.45,0-3.28-.7-6.13-2.1-8.53ZM13.13,16.19c0-.88.04-1.58.18-2.14.44-1.88,1.71-2.49,4.68-2.49h29.76c3.11,0,5.56.74,7.27,2.23,1.71,1.49,2.54,3.41,2.54,5.86,0,1.75-.44,3.24-1.31,4.51-.88,1.27-2.06,2.23-3.59,2.93-1.49.7-3.24,1.05-5.16,1.05h-29.5c-3.81,0-4.86-1.01-4.86-4.64v-7.31Zm44.03,36.98c-1.84,1.49-4.68,2.28-8.62,2.28h-30.55c-3.81,0-4.86-1.01-4.86-4.64v-8.49c0-.88.04-1.58.18-2.14.44-1.93,1.71-2.49,4.68-2.49h30.86c2.28,0,4.2.39,5.87,1.23,1.66.79,2.93,1.88,3.81,3.33.88,1.4,1.31,3.02,1.31,4.9,0,2.49-.88,4.51-2.67,6.04Z"/>
    </g>
  </g>
</svg>