<?xml version="1.0" encoding="UTF-8"?>
<svg id="Layer_2" data-name="Layer 2" xmlns="http://www.w3.org/2000/svg" xmlns:xlink="http://www.w3.org/1999/xlink" viewBox="0 0 123.57 64.78">
  <defs>
    <style>
      .cls-1 {
        clip-path: url(#clippath);
      }

      .cls-2 {
        fill: none;
      }

      .cls-2, .cls-3, .cls-4, .cls-5, .cls-6, .cls-7, .cls-8, .cls-9, .cls-10, .cls-11, .cls-12, .cls-13, .cls-14, .cls-15, .cls-16, .cls-17, .cls-18, .cls-19, .cls-20, .cls-21, .cls-22, .cls-23, .cls-24, .cls-25, .cls-26, .cls-27, .cls-28, .cls-29, .cls-30, .cls-31, .cls-32, .cls-33, .cls-34, .cls-35, .cls-36, .cls-37, .cls-38, .cls-39, .cls-40, .cls-41, .cls-42, .cls-43, .cls-44, .cls-45, .cls-46, .cls-47, .cls-48, .cls-49, .cls-50, .cls-51, .cls-52, .cls-53, .cls-54, .cls-55, .cls-56, .cls-57, .cls-58, .cls-59, .cls-60, .cls-61, .cls-62, .cls-63, .cls-64, .cls-65, .cls-66 {
        stroke-width: 0px;
      }

      .cls-3 {
        fill: url(#linear-gradient);
      }

      .cls-4 {
        fill: #7147ff;
      }

      .cls-5 {
        fill: #7145ff;
      }

      .cls-6 {
        fill: #797cff;
      }

      .cls-7 {
        fill: #776eff;
      }

      .cls-8 {
        fill: #776cff;
      }

      .cls-9 {
        fill: #7666ff;
      }

      .cls-10 {
        fill: #7663ff;
      }

      .cls-11 {
        fill: #7669ff;
      }

      .cls-12 {
        fill: #797aff;
      }

      .cls-13 {
        fill: #7977ff;
      }

      .cls-14 {
        fill: #7871ff;
      }

      .cls-15 {
        fill: #7874ff;
      }

      .cls-16 {
        fill: #7b85ff;
      }

      .cls-17 {
        fill: #82b4ff;
      }

      .cls-18 {
        fill: #82b7ff;
      }

      .cls-19 {
        fill: #7a82ff;
      }

      .cls-20 {
        fill: #7a7fff;
      }

      .cls-21 {
        fill: #7560ff;
      }

      .cls-22 {
        fill: #755eff;
      }

      .cls-23 {
        fill: #7b87ff;
      }

      .cls-24 {
        fill: #7042ff;
      }

      .cls-25 {
        fill: #703fff;
      }

      .cls-26 {
        fill: #81b1ff;
      }

      .cls-27 {
        fill: #87d8ff;
      }

      .cls-28 {
        fill: #87d5ff;
      }

      .cls-29 {
        fill: #87d3ff;
      }

      .cls-30 {
        fill: #85caff;
      }

      .cls-31 {
        fill: #85c8ff;
      }

      .cls-32 {
        fill: #88deff;
      }

      .cls-33 {
        fill: #88dbff;
      }

      .cls-34 {
        fill: #724dff;
      }

      .cls-35 {
        fill: #724aff;
      }

      .cls-36 {
        fill: #84c5ff;
      }

      .cls-37 {
        fill: #89e1ff;
      }

      .cls-38 {
        fill: #89e3ff;
      }

      .cls-39 {
        fill: #8ae9ff;
      }

      .cls-40 {
        fill: #7353ff;
      }

      .cls-41 {
        fill: #7350ff;
      }

      .cls-42 {
        fill: #7355ff;
      }

      .cls-43 {
        fill: #7c90ff;
      }

      .cls-44 {
        fill: #7fa1ff;
      }

      .cls-45 {
        fill: #7fa3ff;
      }

      .cls-46 {
        fill: #7c8dff;
      }

      .cls-47 {
        fill: #7c8aff;
      }

      .cls-48 {
        fill: #8ae6ff;
      }

      .cls-49 {
        fill: #83baff;
      }

      .cls-50 {
        fill: #83bcff;
      }

      .cls-51 {
        fill: #84c2ff;
      }

      .cls-52 {
        fill: #86cdff;
      }

      .cls-53 {
        fill: #86d0ff;
      }

      .cls-54 {
        fill: #84bfff;
      }

      .cls-55 {
        fill: #7d93ff;
      }

      .cls-56 {
        fill: #7d95ff;
      }

      .cls-57 {
        fill: #7e98ff;
      }

      .cls-58 {
        fill: #80a6ff;
      }

      .cls-59 {
        fill: #7458ff;
      }

      .cls-60 {
        fill: #745bff;
      }

      .cls-61 {
        fill: #80a9ff;
      }

      .cls-62 {
        fill: #7e9bff;
      }

      .cls-63 {
        fill: #81acff;
      }

      .cls-64 {
        fill: #81aeff;
      }

      .cls-65 {
        fill: #7e9eff;
      }

      .cls-66 {
        fill: #000024;
      }
    </style>
    <linearGradient id="linear-gradient" x1="64.2" y1="65.86" x2="102.58" y2="-.63" gradientUnits="userSpaceOnUse">
      <stop offset="0" stop-color="#dcbfff"/>
      <stop offset=".2" stop-color="#9cbbf2"/>
      <stop offset=".41" stop-color="#65b8e7"/>
      <stop offset=".59" stop-color="#39b6df"/>
      <stop offset=".76" stop-color="#1ab4d9"/>
      <stop offset=".9" stop-color="#06b3d5"/>
      <stop offset="1" stop-color="#00b3d4"/>
    </linearGradient>
    <clipPath id="clippath">
      <path class="cls-2" d="m47.37,51.58c11.36,26.33,61.82,6.56,71.74-19.96,1.18-3.16,1.79-6.41,1.69-9.7-.06-1.82-7.46-2.83-7.97-4.66-.24-.87,6.58-2.55,6.23-3.41-.4-.98-.85-1.89-1.35-2.75C111.89,1.08,99.86-.76,87.26,2.42c-23.33,5.88-48.6,28.97-39.89,49.16Z"/>
    </clipPath>
  </defs>
  <g id="Layer_1-2" data-name="Layer 1">
    <g>
      <path class="cls-3" d="m47.37,51.58c11.36,26.33,61.82,6.56,71.74-19.96,1.18-3.16,1.79-6.41,1.69-9.7-.06-1.82-7.46-2.83-7.97-4.66-.24-.87,6.58-2.55,6.23-3.41-.4-.98-.85-1.89-1.35-2.75C111.89,1.08,99.86-.76,87.26,2.42c-23.33,5.88-48.6,28.97-39.89,49.16Z"/>
      <g class="cls-1">
        <g>
          <path class="cls-25" d="m42.99,42.44c-.09-.16-.22-.28-.37-.38-.15-.09-.31-.14-.49-.15v-.04c.16-.04.3-.09.42-.18.12-.08.22-.19.29-.33.07-.13.11-.29.11-.46,0-.23-.06-.43-.17-.6-.11-.17-.28-.31-.5-.41-.22-.1-.5-.15-.83-.15h-2.27c-.87,0-1.09.23-1.09,1.05v2.43c0,.82.24,1.05,1.09,1.05h2.39c.34,0,.62-.06.86-.16.23-.11.41-.26.52-.45.12-.19.18-.4.18-.64,0-.22-.05-.41-.14-.58Zm-4.01-1.61c0-.06,0-.11.01-.15.03-.13.12-.17.32-.17h2.01c.21,0,.38.05.49.15.12.1.17.23.17.4,0,.12-.03.22-.09.31-.06.09-.14.15-.24.2-.1.05-.22.07-.35.07h-2c-.26,0-.33-.07-.33-.31v-.49Zm2.98,2.5c-.12.1-.32.15-.58.15h-2.07c-.26,0-.33-.07-.33-.31v-.57c0-.06,0-.11.01-.15.03-.13.12-.17.32-.17h2.09c.15,0,.28.03.4.08.11.05.2.13.26.23.06.09.09.2.09.33,0,.17-.06.31-.18.41Z"/>
          <path class="cls-24" d="m43.24,42.41c-.1-.18-.24-.32-.41-.42s-.35-.15-.54-.16v-.05c.17-.04.33-.11.47-.2s.25-.21.32-.36.12-.32.12-.52c0-.25-.06-.47-.19-.67s-.31-.35-.56-.46-.56-.16-.92-.16h-2.52c-.96,0-1.21.25-1.21,1.16v2.7c0,.91.26,1.16,1.21,1.16h2.65c.37,0,.69-.06.95-.18s.45-.29.58-.5.2-.44.2-.71c0-.25-.05-.46-.16-.64Zm-4.45-1.79c0-.07,0-.12.01-.16.03-.14.13-.19.35-.19h2.24c.23,0,.42.06.55.17.13.11.19.26.19.44,0,.13-.03.24-.1.34-.07.1-.15.17-.27.22s-.24.08-.39.08h-2.22c-.29,0-.36-.08-.36-.35v-.55Zm3.31,2.78c-.14.11-.35.17-.65.17h-2.3c-.29,0-.36-.08-.36-.35v-.64c0-.07,0-.12.01-.16.03-.14.13-.19.35-.19h2.32c.17,0,.32.03.44.09s.22.14.29.25.1.23.1.37c0,.19-.06.34-.2.45Z"/>
          <path class="cls-5" d="m43.48,42.25c-.11-.2-.26-.35-.45-.46s-.38-.17-.59-.18v-.05c.19-.04.36-.12.51-.22s.27-.24.35-.4.13-.35.13-.57c0-.28-.07-.52-.21-.73s-.34-.38-.61-.5-.61-.18-1.02-.18h-2.77c-1.06,0-1.33.28-1.33,1.28v2.97c0,1,.29,1.28,1.33,1.28h2.91c.41,0,.76-.07,1.04-.2s.49-.32.64-.55.22-.49.22-.78c0-.27-.06-.51-.17-.7Zm-4.89-1.97c0-.07,0-.13.01-.18.04-.16.14-.21.39-.21h2.46c.26,0,.46.06.6.18.14.12.21.28.21.48,0,.14-.04.27-.11.37-.07.1-.17.18-.3.24s-.27.09-.43.09h-2.44c-.31,0-.4-.08-.4-.38v-.6Zm3.64,3.05c-.15.12-.39.19-.71.19h-2.52c-.31,0-.4-.08-.4-.38v-.7c0-.07,0-.13.01-.18.04-.16.14-.21.39-.21h2.55c.19,0,.35.03.48.1s.24.16.31.27.11.25.11.4c0,.21-.07.37-.22.5Z"/>
          <path class="cls-4" d="m43.72,41.96c-.13-.21-.29-.38-.49-.5s-.42-.19-.65-.19v-.06c.21-.05.4-.13.56-.24s.29-.26.39-.43.14-.38.14-.62c0-.3-.08-.57-.22-.8s-.37-.42-.67-.55-.67-.2-1.11-.2h-3.02c-1.16,0-1.45.3-1.45,1.39v3.24c0,1.09.32,1.39,1.45,1.39h3.18c.45,0,.83-.07,1.14-.22s.54-.34.7-.6.24-.53.24-.85c0-.3-.06-.55-.19-.77Zm-5.33-2.14c0-.08,0-.14.02-.19.04-.17.15-.22.42-.22h2.68c.28,0,.5.07.65.2.15.13.23.31.23.53,0,.16-.04.29-.12.41-.08.11-.19.2-.32.26s-.29.09-.47.09h-2.66c-.34,0-.44-.09-.44-.42v-.66Zm3.97,3.33c-.16.14-.42.21-.78.21h-2.75c-.34,0-.44-.09-.44-.42v-.76c0-.08,0-.14.02-.19.04-.17.15-.22.42-.22h2.78c.21,0,.38.04.53.11s.26.17.34.3.12.27.12.44c0,.22-.08.41-.24.54Z"/>
          <path class="cls-35" d="m43.97,41.55c-.14-.23-.31-.41-.53-.54s-.45-.2-.7-.21v-.06c.23-.05.43-.14.61-.26s.32-.28.42-.47.15-.41.15-.67c0-.33-.08-.61-.24-.87s-.4-.45-.72-.59-.72-.21-1.2-.21h-3.27c-1.25,0-1.58.33-1.58,1.51v3.51c0,1.18.34,1.51,1.58,1.51h3.44c.49,0,.9-.08,1.23-.23s.58-.37.76-.64.26-.58.26-.92c0-.32-.07-.6-.2-.83Zm-5.78-2.32c0-.09,0-.15.02-.21.04-.18.17-.24.46-.24h2.9c.3,0,.54.07.71.22.17.15.25.33.25.57,0,.17-.04.32-.13.44-.09.12-.2.22-.35.29s-.32.1-.5.1h-2.88c-.37,0-.47-.1-.47-.45v-.71Zm4.29,3.61c-.18.15-.46.22-.84.22h-2.98c-.37,0-.47-.1-.47-.45v-.83c0-.09,0-.15.02-.21.04-.19.17-.24.46-.24h3.01c.22,0,.41.04.57.12s.29.18.37.32.13.29.13.48c0,.24-.08.44-.26.59Z"/>
          <path class="cls-34" d="m44.24,41.01c-.15-.25-.33-.44-.57-.58s-.49-.22-.75-.23v-.07c.24-.06.46-.15.65-.28s.34-.3.45-.51.17-.45.17-.72c0-.35-.09-.66-.26-.93s-.43-.48-.78-.64-.78-.23-1.29-.23h-3.52c-1.35,0-1.7.35-1.7,1.62v3.78c0,1.27.37,1.62,1.7,1.62h3.7c.52,0,.97-.09,1.33-.25s.63-.4.81-.69.28-.62.28-.99c0-.34-.07-.64-.22-.9Zm-6.22-2.5c0-.09,0-.17.02-.23.05-.2.18-.26.49-.26h3.13c.33,0,.58.08.76.23.18.16.27.36.27.62,0,.18-.05.34-.14.47-.09.13-.22.23-.38.31s-.34.11-.54.11h-3.1c-.4,0-.51-.11-.51-.49v-.77Zm4.62,3.88c-.19.16-.49.24-.91.24h-3.21c-.4,0-.51-.11-.51-.49v-.89c0-.09,0-.17.02-.23.05-.2.18-.26.49-.26h3.24c.24,0,.44.04.62.13s.31.2.4.35.14.32.14.51c0,.26-.09.48-.28.63Z"/>
          <path class="cls-41" d="m44.53,40.37c-.16-.27-.36-.47-.61-.63s-.52-.23-.81-.24v-.07c.26-.06.5-.16.7-.3s.37-.32.48-.54.18-.48.18-.77c0-.38-.1-.71-.28-1s-.46-.52-.83-.68-.83-.25-1.38-.25h-3.77c-1.44,0-1.82.38-1.82,1.74v4.05c0,1.36.39,1.74,1.82,1.74h3.97c.56,0,1.04-.09,1.42-.27s.67-.43.87-.74.3-.66.3-1.06c0-.37-.08-.69-.24-.96Zm-6.66-2.68c0-.1,0-.18.02-.24.05-.21.19-.28.53-.28h3.35c.35,0,.63.08.82.25.19.17.29.38.29.66,0,.2-.05.36-.15.51-.1.14-.23.25-.4.33s-.36.12-.58.12h-3.32c-.43,0-.55-.11-.55-.52v-.82Zm4.95,4.16c-.2.17-.53.26-.97.26h-3.44c-.43,0-.55-.11-.55-.52v-.96c0-.1,0-.18.02-.24.05-.22.19-.28.53-.28h3.47c.26,0,.47.05.66.14s.33.21.43.37.15.34.15.55c0,.28-.1.51-.3.68Z"/>
          <path class="cls-40" d="m44.85,39.62c-.17-.28-.38-.51-.65-.67s-.56-.25-.86-.26v-.08c.28-.06.53-.17.75-.32s.39-.34.51-.58.19-.51.19-.82c0-.4-.1-.75-.3-1.07s-.49-.55-.89-.73-.89-.26-1.48-.26h-4.02c-1.54,0-1.94.4-1.94,1.85v4.32c0,1.45.42,1.85,1.94,1.85h4.23c.6,0,1.11-.1,1.52-.29s.72-.46.93-.79.32-.71.32-1.13c0-.39-.08-.74-.25-1.02Zm-7.1-2.86c0-.11,0-.19.02-.26.05-.23.2-.3.56-.3h3.57c.37,0,.67.09.87.27.2.18.3.41.3.7,0,.21-.05.39-.16.54-.1.15-.25.27-.43.35s-.39.13-.62.13h-3.54c-.46,0-.58-.12-.58-.56v-.88Zm5.28,4.44c-.22.18-.56.27-1.03.27h-3.66c-.46,0-.58-.12-.58-.56v-1.02c0-.11,0-.19.02-.26.05-.23.2-.3.56-.3h3.7c.27,0,.5.05.7.15s.35.23.46.4.16.36.16.59c0,.3-.1.54-.32.72Z"/>
          <path class="cls-42" d="m45.22,38.77c-.18-.3-.41-.54-.69-.71s-.59-.26-.91-.27v-.08c.3-.07.56-.18.79-.34s.42-.36.55-.61.2-.54.2-.88c0-.43-.11-.8-.32-1.13s-.52-.59-.94-.78-.94-.28-1.57-.28h-4.27c-1.63,0-2.06.43-2.06,1.97v4.58c0,1.54.45,1.97,2.06,1.97h4.5c.64,0,1.18-.1,1.61-.31s.76-.49.99-.84.33-.75.33-1.2c0-.42-.09-.78-.27-1.09Zm-7.55-3.03c0-.11,0-.2.02-.27.06-.24.22-.32.6-.32h3.79c.4,0,.71.09.93.28.22.19.32.44.32.75,0,.22-.06.41-.17.57-.11.16-.26.28-.46.37s-.41.13-.66.13h-3.76c-.49,0-.62-.13-.62-.59v-.93Zm5.61,4.71c-.23.19-.6.29-1.1.29h-3.89c-.49,0-.62-.13-.62-.59v-1.08c0-.11,0-.2.02-.27.06-.25.22-.32.6-.32h3.93c.29,0,.53.05.75.16s.37.24.49.42.17.38.17.62c0,.32-.11.58-.34.77Z"/>
          <path class="cls-59" d="m45.65,37.83c-.19-.32-.43-.57-.73-.75s-.63-.28-.97-.29v-.09c.31-.07.59-.19.84-.36s.44-.38.58-.65.21-.57.21-.93c0-.45-.11-.85-.34-1.2s-.55-.62-1-.82-1-.3-1.66-.3h-4.52c-1.73,0-2.18.45-2.18,2.08v4.85c0,1.63.47,2.08,2.18,2.08h4.76c.67,0,1.25-.11,1.71-.32s.81-.51,1.04-.89.35-.8.35-1.28c0-.44-.09-.83-.28-1.15Zm-7.99-3.21c0-.12,0-.21.02-.29.06-.25.23-.34.63-.34h4.01c.42,0,.75.1.98.3.23.2.34.46.34.79,0,.24-.06.44-.18.61-.12.17-.28.3-.48.4s-.44.14-.7.14h-3.98c-.51,0-.66-.14-.66-.63v-.99Zm5.94,4.99c-.25.2-.63.31-1.16.31h-4.12c-.51,0-.66-.14-.66-.63v-1.15c0-.12,0-.21.02-.29.06-.26.23-.34.63-.34h4.16c.31,0,.57.06.79.17s.39.25.51.45.18.41.18.66c0,.34-.12.61-.36.81Z"/>
          <path class="cls-60" d="m46.14,36.8c-.2-.34-.45-.6-.77-.79s-.66-.29-1.02-.31v-.09c.33-.07.63-.2.88-.38s.46-.41.61-.69.22-.6.22-.98c0-.48-.12-.9-.36-1.26s-.58-.66-1.05-.87-1.05-.31-1.75-.31h-4.77c-1.83,0-2.3.48-2.3,2.2v5.12c0,1.72.5,2.2,2.3,2.2h5.02c.71,0,1.32-.12,1.8-.34s.85-.54,1.1-.94.37-.84.37-1.35c0-.47-.1-.87-.3-1.21Zm-8.43-3.39c0-.12,0-.22.02-.31.06-.27.24-.36.67-.36h4.24c.44,0,.79.11,1.03.32.24.21.36.49.36.83,0,.25-.06.46-.19.64-.12.18-.29.32-.51.42s-.46.15-.74.15h-4.2c-.54,0-.69-.14-.69-.66v-1.04Zm6.27,5.27c-.26.22-.67.32-1.23.32h-4.35c-.54,0-.69-.14-.69-.66v-1.21c0-.12,0-.22.02-.31.06-.27.24-.36.67-.36h4.39c.32,0,.6.06.83.17s.42.27.54.47.19.43.19.7c0,.36-.12.65-.38.86Z"/>
          <path class="cls-22" d="m46.7,35.69c-.21-.36-.48-.63-.81-.83s-.7-.31-1.08-.32v-.1c.35-.08.66-.21.93-.4s.49-.43.64-.72.24-.64.24-1.03c0-.5-.13-.94-.37-1.33s-.62-.69-1.11-.91-1.11-.33-1.84-.33h-5.02c-1.92,0-2.42.5-2.42,2.31v5.39c0,1.81.52,2.31,2.42,2.31h5.29c.75,0,1.38-.12,1.9-.36s.9-.57,1.16-.99.39-.89.39-1.42c0-.49-.1-.92-.31-1.28Zm-8.87-3.57c0-.13,0-.24.03-.32.07-.28.26-.37.7-.37h4.46c.47,0,.83.11,1.09.33.26.22.38.51.38.88,0,.26-.07.49-.2.68-.13.19-.31.33-.54.44s-.49.16-.77.16h-4.42c-.57,0-.73-.15-.73-.7v-1.1Zm6.6,5.54c-.27.23-.7.34-1.29.34h-4.58c-.57,0-.73-.15-.73-.7v-1.27c0-.13,0-.24.03-.32.07-.29.26-.37.7-.37h4.62c.34,0,.63.06.88.18s.44.28.57.5.2.45.2.73c0,.37-.13.68-.4.9Z"/>
          <path class="cls-21" d="m47.34,34.51c-.22-.37-.5-.66-.85-.87s-.73-.32-1.13-.34v-.1c.36-.08.69-.22.98-.42s.51-.45.67-.76.25-.67.25-1.08c0-.53-.13-.99-.39-1.4s-.65-.73-1.16-.96-1.16-.34-1.93-.34h-5.27c-2.02,0-2.54.53-2.54,2.43v5.66c0,1.9.55,2.43,2.54,2.43h5.55c.78,0,1.45-.13,1.99-.38s.94-.6,1.22-1.04.41-.93.41-1.49c0-.52-.11-.96-.33-1.34Zm-9.32-3.75c0-.14,0-.25.03-.34.07-.3.27-.39.74-.39h4.68c.49,0,.87.12,1.14.35.27.23.4.54.4.92,0,.28-.07.51-.21.71-.14.2-.32.35-.56.46s-.51.17-.81.17h-4.64c-.6,0-.76-.16-.76-.73v-1.15Zm6.93,5.82c-.29.24-.74.36-1.36.36h-4.81c-.6,0-.76-.16-.76-.73v-1.34c0-.14,0-.25.03-.34.07-.3.27-.39.74-.39h4.85c.36,0,.66.06.92.19s.46.3.6.52.21.48.21.77c0,.39-.13.71-.42.95Z"/>
          <path class="cls-10" d="m48.08,33.26c-.23-.39-.52-.7-.89-.92s-.76-.34-1.18-.35v-.11c.38-.09.73-.23,1.02-.44s.54-.47.71-.79.26-.7.26-1.13c0-.56-.14-1.04-.41-1.46s-.68-.76-1.22-1-1.22-.36-2.03-.36h-5.52c-2.11,0-2.66.56-2.66,2.55v5.93c0,1.99.58,2.55,2.66,2.55h5.81c.82,0,1.52-.13,2.08-.4s.99-.63,1.28-1.09.43-.97.43-1.56c0-.54-.11-1.01-.35-1.41Zm-9.76-3.92c0-.14,0-.26.03-.35.07-.31.28-.41.77-.41h4.9c.51,0,.92.12,1.2.37.28.25.42.56.42.97,0,.29-.07.53-.22.74-.14.21-.34.37-.59.48s-.53.17-.85.17h-4.86c-.63,0-.8-.17-.8-.76v-1.2Zm7.26,6.09c-.3.25-.77.38-1.42.38h-5.03c-.63,0-.8-.17-.8-.76v-1.4c0-.14,0-.26.03-.35.07-.32.28-.41.77-.41h5.08c.38,0,.69.07.97.2s.48.31.63.55.22.5.22.81c0,.41-.14.75-.44,1Z"/>
          <path class="cls-9" d="m48.91,31.95c-.24-.41-.55-.73-.93-.96s-.8-.35-1.24-.37v-.11c.4-.09.76-.25,1.07-.46s.56-.49.74-.83.27-.73.27-1.18c0-.58-.15-1.08-.43-1.53s-.71-.79-1.27-1.05-1.27-.38-2.12-.38h-5.77c-2.21,0-2.78.58-2.78,2.66v6.2c0,2.08.6,2.66,2.78,2.66h6.08c.86,0,1.59-.14,2.18-.41s1.03-.66,1.33-1.14.45-1.02.45-1.63c0-.57-.12-1.06-.36-1.47Zm-10.2-4.1c0-.15,0-.27.03-.37.08-.32.29-.43.81-.43h5.13c.54,0,.96.13,1.25.38.29.26.44.59.44,1.01,0,.3-.08.56-.23.78-.15.22-.35.38-.62.51s-.56.18-.89.18h-5.08c-.66,0-.84-.17-.84-.8v-1.26Zm7.58,6.37c-.31.26-.81.39-1.49.39h-5.26c-.66,0-.84-.17-.84-.8v-1.46c0-.15,0-.27.03-.37.08-.33.29-.43.81-.43h5.31c.39,0,.72.07,1.01.21s.5.33.66.57.23.52.23.84c0,.43-.15.78-.46,1.04Z"/>
          <path class="cls-11" d="m49.86,30.59c-.25-.43-.57-.76-.98-1s-.83-.37-1.29-.39v-.12c.42-.09.79-.26,1.12-.48s.59-.51.77-.87.28-.76.28-1.23c0-.61-.15-1.13-.45-1.6s-.74-.83-1.33-1.09-1.33-.39-2.21-.39h-6.02c-2.3,0-2.9.61-2.9,2.78v6.47c0,2.17.63,2.78,2.9,2.78h6.34c.9,0,1.66-.15,2.27-.43s1.08-.69,1.39-1.19.47-1.06.47-1.7c0-.59-.12-1.1-.38-1.53Zm-10.64-4.28c0-.16,0-.28.03-.39.08-.34.31-.45.84-.45h5.35c.56,0,1,.13,1.31.4.31.27.46.61.46,1.05,0,.31-.08.58-.24.81-.16.23-.37.4-.64.53s-.58.19-.93.19h-5.3c-.68,0-.87-.18-.87-.83v-1.31Zm7.91,6.65c-.33.27-.84.41-1.55.41h-5.49c-.68,0-.87-.18-.87-.83v-1.53c0-.16,0-.28.03-.39.08-.35.31-.45.84-.45h5.55c.41,0,.75.07,1.05.22s.53.34.68.6.24.54.24.88c0,.45-.15.81-.48,1.09Z"/>
          <path class="cls-8" d="m50.92,29.18c-.26-.44-.6-.79-1.02-1.04s-.87-.39-1.34-.4v-.12c.43-.1.82-.27,1.16-.5s.61-.53.8-.9.29-.79.29-1.29c0-.63-.16-1.18-.47-1.66s-.77-.86-1.38-1.14-1.38-.41-2.3-.41h-6.27c-2.4,0-3.02.63-3.02,2.89v6.73c0,2.26.66,2.89,3.02,2.89h6.6c.93,0,1.73-.15,2.37-.45s1.12-.71,1.45-1.24.49-1.11.49-1.77c0-.61-.13-1.15-.39-1.6Zm-11.08-4.46c0-.16,0-.29.03-.4.08-.35.32-.47.88-.47h5.57c.58,0,1.04.14,1.36.42.32.28.48.64.48,1.1,0,.33-.08.61-.25.84-.16.24-.39.42-.67.55s-.61.2-.97.2h-5.52c-.71,0-.91-.19-.91-.87v-1.37Zm8.24,6.92c-.34.28-.88.43-1.61.43h-5.72c-.71,0-.91-.19-.91-.87v-1.59c0-.16,0-.29.03-.4.08-.36.32-.47.88-.47h5.78c.43,0,.78.08,1.1.23s.55.35.71.62.25.57.25.92c0,.47-.16.85-.5,1.13Z"/>
          <path class="cls-7" d="m52.12,27.72c-.27-.46-.62-.82-1.06-1.08s-.9-.4-1.4-.42v-.13c.45-.1.86-.28,1.21-.52s.64-.56.83-.94.31-.83.31-1.34c0-.66-.16-1.22-.49-1.73s-.8-.9-1.44-1.18-1.44-.43-2.39-.43h-6.52c-2.5,0-3.14.66-3.14,3.01v7c0,2.35.68,3.01,3.14,3.01h6.87c.97,0,1.8-.16,2.46-.47s1.17-.74,1.51-1.29.51-1.15.51-1.84c0-.64-.13-1.19-.41-1.66Zm-11.53-4.63c0-.17,0-.31.03-.42.09-.37.33-.49.91-.49h5.79c.6,0,1.08.14,1.41.43.33.29.49.66.49,1.14,0,.34-.09.63-.26.88-.17.25-.4.43-.7.57s-.63.2-1.01.2h-5.74c-.74,0-.95-.2-.95-.9v-1.42Zm8.57,7.2c-.35.29-.91.44-1.68.44h-5.95c-.74,0-.95-.2-.95-.9v-1.65c0-.17,0-.31.03-.42.09-.37.33-.49.91-.49h6.01c.44,0,.82.08,1.14.24s.57.37.74.65.26.59.26.95c0,.49-.17.88-.52,1.18Z"/>
          <path class="cls-14" d="m53.45,26.23c-.28-.48-.64-.85-1.1-1.12s-.94-.42-1.45-.43v-.13c.47-.11.89-.29,1.26-.54s.66-.58.87-.97.32-.86.32-1.39c0-.68-.17-1.27-.5-1.8s-.83-.93-1.5-1.23-1.5-.44-2.49-.44h-6.77c-2.59,0-3.26.68-3.26,3.12v7.27c0,2.44.71,3.12,3.26,3.12h7.13c1.01,0,1.87-.16,2.56-.49s1.21-.77,1.57-1.34.53-1.19.53-1.91c0-.66-.14-1.24-.42-1.73Zm-11.97-4.81c0-.18,0-.32.04-.43.09-.38.34-.5.95-.5h6.02c.63,0,1.12.15,1.47.45.34.3.51.69.51,1.19,0,.35-.09.65-.27.91-.18.26-.42.45-.73.59s-.65.21-1.04.21h-5.96c-.77,0-.98-.2-.98-.94v-1.48Zm8.9,7.48c-.37.31-.95.46-1.74.46h-6.17c-.77,0-.98-.2-.98-.94v-1.72c0-.18,0-.32.04-.43.09-.39.34-.5.95-.5h6.24c.46,0,.85.08,1.19.25s.59.38.77.67.27.61.27.99c0,.5-.17.92-.54,1.22Z"/>
          <path class="cls-15" d="m54.93,24.71c-.29-.5-.67-.88-1.14-1.17s-.97-.43-1.5-.45v-.14c.49-.11.92-.3,1.3-.56s.68-.6.9-1.01.33-.89.33-1.44c0-.71-.18-1.32-.52-1.86s-.86-.97-1.55-1.28-1.55-.46-2.58-.46h-7.02c-2.69,0-3.38.71-3.38,3.24v7.54c0,2.53.73,3.24,3.38,3.24h7.39c1.05,0,1.94-.17,2.65-.5s1.25-.8,1.62-1.39.55-1.24.55-1.98c0-.69-.14-1.29-.44-1.79Zm-12.41-4.99c0-.18,0-.33.04-.45.09-.39.36-.52.98-.52h6.24c.65,0,1.17.16,1.52.47.36.31.53.72.53,1.23,0,.37-.09.68-.28.94-.18.27-.43.47-.75.61s-.68.22-1.08.22h-6.18c-.8,0-1.02-.21-1.02-.97v-1.53Zm9.23,7.75c-.38.32-.98.48-1.81.48h-6.4c-.8,0-1.02-.21-1.02-.97v-1.78c0-.18,0-.33.04-.45.09-.4.36-.52.98-.52h6.47c.48,0,.88.09,1.23.26s.61.4.8.7.28.63.28,1.03c0,.52-.18.95-.56,1.27Z"/>
          <path class="cls-13" d="m56.56,23.17c-.3-.51-.69-.92-1.18-1.21s-1.01-.45-1.56-.47v-.14c.5-.11.96-.31,1.35-.58s.71-.62.93-1.05.34-.92.34-1.49c0-.73-.18-1.37-.54-1.93s-.89-1-1.61-1.32-1.61-.48-2.67-.48h-7.27c-2.78,0-3.51.73-3.51,3.35v7.81c0,2.62.76,3.35,3.51,3.35h7.66c1.08,0,2.01-.18,2.75-.52s1.3-.83,1.68-1.43.57-1.28.57-2.05c0-.71-.15-1.33-.46-1.85Zm-12.85-5.17c0-.19,0-.34.04-.47.09-.41.37-.54,1.02-.54h6.46c.67,0,1.21.16,1.58.48.37.32.55.74.55,1.27,0,.38-.09.7-.29.98-.19.28-.45.48-.78.64s-.7.23-1.12.23h-6.4c-.83,0-1.05-.22-1.05-1.01v-1.59Zm9.56,8.03c-.39.33-1.02.49-1.87.49h-6.63c-.83,0-1.05-.22-1.05-1.01v-1.84c0-.19,0-.34.04-.47.09-.42.37-.54,1.02-.54h6.7c.49,0,.91.09,1.27.27s.63.41.83.72.28.66.28,1.06c0,.54-.19.98-.58,1.31Z"/>
          <path class="cls-12" d="m58.36,21.61c-.31-.53-.72-.95-1.22-1.25s-1.04-.46-1.61-.48v-.15c.52-.12.99-.32,1.4-.6s.73-.64.96-1.08.35-.95.35-1.54c0-.76-.19-1.41-.56-1.99s-.92-1.04-1.66-1.37-1.66-.49-2.76-.49h-7.52c-2.88,0-3.63.76-3.63,3.47v8.08c0,2.71.79,3.47,3.63,3.47h7.92c1.12,0,2.08-.18,2.84-.54s1.34-.86,1.74-1.48.59-1.33.59-2.12c0-.74-.16-1.38-.47-1.92Zm-13.3-5.35c0-.2,0-.35.04-.48.1-.42.38-.56,1.05-.56h6.68c.7,0,1.25.17,1.63.5.38.33.57.77.57,1.32,0,.39-.1.73-.29,1.01-.2.28-.46.5-.81.66s-.73.24-1.16.24h-6.62c-.85,0-1.09-.23-1.09-1.04v-1.64Zm9.89,8.3c-.41.34-1.05.51-1.94.51h-6.86c-.85,0-1.09-.23-1.09-1.04v-1.91c0-.2,0-.35.04-.48.1-.43.38-.56,1.05-.56h6.93c.51,0,.94.09,1.32.28s.66.42.85.75.29.68.29,1.1c0,.56-.19,1.02-.6,1.36Z"/>
          <path class="cls-6" d="m60.34,20.04c-.32-.55-.74-.98-1.26-1.29s-1.08-.48-1.67-.5v-.15c.54-.12,1.02-.33,1.44-.62s.76-.66,1-1.12.37-.99.37-1.59c0-.78-.2-1.46-.58-2.06s-.95-1.07-1.72-1.41-1.72-.51-2.85-.51h-7.77c-2.98,0-3.75.78-3.75,3.58v8.35c0,2.8.81,3.58,3.75,3.58h8.18c1.16,0,2.14-.19,2.93-.56s1.39-.88,1.8-1.53.61-1.37.61-2.19c0-.76-.16-1.42-.49-1.98Zm-13.74-5.52c0-.2.01-.37.04-.5.1-.44.4-.58,1.09-.58h6.9c.72,0,1.29.17,1.69.52.4.35.59.79.59,1.36,0,.41-.1.75-.3,1.05-.2.29-.48.52-.83.68s-.75.24-1.2.24h-6.84c-.88,0-1.13-.23-1.13-1.08v-1.7Zm10.22,8.58c-.42.35-1.09.53-2,.53h-7.09c-.88,0-1.13-.23-1.13-1.08v-1.97c0-.2.01-.37.04-.5.1-.45.4-.58,1.09-.58h7.16c.53,0,.97.1,1.36.28s.68.44.88.77.3.7.3,1.14c0,.58-.2,1.05-.62,1.4Z"/>
          <path class="cls-20" d="m62.5,18.47c-.33-.57-.76-1.01-1.3-1.33s-1.11-.49-1.72-.51v-.16c.56-.13,1.05-.34,1.49-.64s.78-.68,1.03-1.15.38-1.02.38-1.65c0-.81-.2-1.51-.6-2.13s-.98-1.1-1.77-1.46-1.77-.52-2.95-.52h-8.02c-3.07,0-3.87.81-3.87,3.7v8.62c0,2.89.84,3.7,3.87,3.7h8.45c1.19,0,2.21-.19,3.03-.58s1.43-.91,1.86-1.58.63-1.42.63-2.26c0-.79-.17-1.47-.5-2.04Zm-14.18-5.7c0-.21.01-.38.04-.51.1-.45.41-.6,1.12-.6h7.13c.74,0,1.33.18,1.74.53.41.36.61.82.61,1.4,0,.42-.1.78-.31,1.08-.21.3-.49.53-.86.7s-.78.25-1.24.25h-7.06c-.91,0-1.16-.24-1.16-1.11v-1.75Zm10.54,8.86c-.44.36-1.12.55-2.06.55h-7.32c-.91,0-1.16-.24-1.16-1.11v-2.03c0-.21.01-.38.04-.51.1-.46.41-.6,1.12-.6h7.39c.55,0,1,.1,1.4.29s.7.45.91.8.31.72.31,1.17c0,.6-.2,1.09-.64,1.45Z"/>
          <path class="cls-19" d="m64.85,16.9c-.34-.59-.79-1.04-1.34-1.37s-1.15-.51-1.77-.53v-.16c.57-.13,1.09-.35,1.53-.66s.81-.7,1.06-1.19.39-1.05.39-1.7c0-.83-.21-1.55-.62-2.19s-1.01-1.14-1.83-1.5-1.83-.54-3.04-.54h-8.27c-3.17,0-3.99.83-3.99,3.82v8.88c0,2.98.86,3.82,3.99,3.82h8.71c1.23,0,2.28-.2,3.12-.59s1.48-.94,1.91-1.63.65-1.46.65-2.33c0-.81-.17-1.51-.52-2.11Zm-14.62-5.88c0-.22.01-.39.04-.53.11-.46.42-.62,1.16-.62h7.35c.77,0,1.37.18,1.79.55.42.37.63.84.63,1.45,0,.43-.11.8-.32,1.11-.22.31-.51.55-.89.72s-.8.26-1.28.26h-7.28c-.94,0-1.2-.25-1.2-1.15v-1.8Zm10.87,9.13c-.45.37-1.16.56-2.13.56h-7.54c-.94,0-1.2-.25-1.2-1.15v-2.1c0-.22.01-.39.04-.53.11-.48.42-.62,1.16-.62h7.62c.56,0,1.04.1,1.45.3s.72.47.94.82.32.75.32,1.21c0,.62-.21,1.12-.66,1.49Z"/>
          <path class="cls-16" d="m66.74,15.82c-.35-.6-.81-1.07-1.38-1.41s-1.18-.52-1.83-.55v-.17c.59-.13,1.12-.36,1.58-.68s.83-.73,1.09-1.22.4-1.08.4-1.75c0-.86-.22-1.6-.63-2.26s-1.04-1.17-1.88-1.55-1.88-.56-3.13-.56h-8.52c-3.26,0-4.11.86-4.11,3.93v9.15c0,3.07.89,3.93,4.11,3.93h8.98c1.27,0,2.35-.21,3.22-.61s1.52-.97,1.97-1.68.67-1.5.67-2.41c0-.84-.18-1.56-.53-2.17Zm-15.07-6.06c0-.22.01-.4.04-.55.11-.48.43-.63,1.19-.63h7.57c.79,0,1.41.19,1.85.57.43.38.65.87.65,1.49,0,.45-.11.82-.33,1.15-.22.32-.52.57-.91.75s-.82.27-1.31.27h-7.51c-.97,0-1.24-.26-1.24-1.18v-1.86Zm11.2,9.41c-.46.38-1.19.58-2.19.58h-7.77c-.97,0-1.24-.26-1.24-1.18v-2.16c0-.22.01-.4.04-.55.11-.49.43-.63,1.19-.63h7.85c.58,0,1.07.1,1.49.31s.74.48.97.85.33.77.33,1.25c0,.63-.22,1.15-.68,1.54Z"/>
          <path class="cls-23" d="m68.53,14.97c-.36-.62-.83-1.1-1.42-1.46s-1.22-.54-1.88-.56v-.17c.61-.14,1.15-.37,1.63-.7s.86-.75,1.12-1.26.41-1.11.41-1.8c0-.88-.22-1.65-.65-2.33s-1.08-1.21-1.94-1.59-1.94-.57-3.22-.57h-8.77c-3.36,0-4.23.88-4.23,4.05v9.42c0,3.16.92,4.05,4.23,4.05h9.24c1.31,0,2.42-.21,3.31-.63s1.57-1,2.03-1.73.69-1.55.69-2.48c0-.86-.18-1.61-.55-2.24Zm-15.51-6.24c0-.23.01-.41.05-.56.11-.49.45-.65,1.23-.65h7.79c.81,0,1.46.19,1.9.58.45.39.66.89.66,1.54,0,.46-.11.85-.34,1.18-.23.33-.54.58-.94.77s-.85.28-1.35.28h-7.73c-1,0-1.27-.26-1.27-1.21v-1.91Zm11.53,9.69c-.48.4-1.23.6-2.26.6h-8c-1,0-1.27-.26-1.27-1.21v-2.22c0-.23.01-.41.05-.56.11-.5.45-.65,1.23-.65h8.08c.6,0,1.1.11,1.54.32s.77.49,1,.87.34.79.34,1.28c0,.65-.22,1.19-.7,1.58Z"/>
          <path class="cls-47" d="m70.37,14.24c-.37-.64-.86-1.14-1.46-1.5s-1.25-.55-1.93-.58v-.18c.62-.14,1.19-.38,1.67-.72s.88-.77,1.16-1.3.42-1.14.42-1.85c0-.91-.23-1.7-.67-2.39s-1.11-1.24-1.99-1.64-1.99-.59-3.31-.59h-9.02c-3.45,0-4.35.91-4.35,4.16v9.69c0,3.25.94,4.16,4.35,4.16h9.5c1.34,0,2.49-.22,3.41-.65s1.61-1.03,2.09-1.78.71-1.59.71-2.55c0-.88-.19-1.65-.57-2.3Zm-15.95-6.41c0-.24.01-.42.05-.58.12-.51.46-.67,1.26-.67h8.02c.84,0,1.5.2,1.96.6.46.4.68.92.68,1.58,0,.47-.12.87-.35,1.21-.24.34-.56.6-.97.79s-.87.28-1.39.28h-7.95c-1.03,0-1.31-.27-1.31-1.25v-1.97Zm11.86,9.96c-.49.41-1.26.61-2.32.61h-8.23c-1.03,0-1.31-.27-1.31-1.25v-2.29c0-.24.01-.42.05-.58.12-.52.46-.67,1.26-.67h8.31c.61,0,1.13.11,1.58.33s.79.51,1.03.9.35.81.35,1.32c0,.67-.23,1.22-.72,1.63Z"/>
          <path class="cls-46" d="m72.24,13.61c-.39-.66-.88-1.17-1.5-1.54s-1.28-.57-1.99-.59v-.18c.64-.15,1.22-.39,1.72-.74s.9-.79,1.19-1.33.44-1.18.44-1.9c0-.93-.23-1.74-.69-2.46s-1.14-1.28-2.05-1.68-2.05-.61-3.4-.61h-9.27c-3.55,0-4.47.93-4.47,4.28v9.96c0,3.34.97,4.28,4.47,4.28h9.77c1.38,0,2.56-.23,3.5-.67s1.66-1.06,2.14-1.83.73-1.64.73-2.62c0-.91-.19-1.7-.58-2.36Zm-16.39-6.59c0-.24.01-.44.05-.59.12-.52.47-.69,1.3-.69h8.24c.86,0,1.54.21,2.01.62.47.41.7.95.7,1.62,0,.48-.12.9-.36,1.25-.24.35-.57.62-.99.81s-.9.29-1.43.29h-8.17c-1.05,0-1.34-.28-1.34-1.28v-2.02Zm12.19,10.24c-.5.42-1.3.63-2.39.63h-8.46c-1.05,0-1.34-.28-1.34-1.28v-2.35c0-.24.01-.44.05-.59.12-.53.47-.69,1.3-.69h8.54c.63,0,1.16.11,1.62.34s.81.52,1.05.92.36.84.36,1.36c0,.69-.24,1.25-.74,1.67Z"/>
          <path class="cls-43" d="m74.14,13.1c-.4-.67-.91-1.2-1.54-1.58s-1.32-.58-2.04-.61v-.19c.66-.15,1.25-.41,1.77-.76s.93-.81,1.22-1.37.45-1.21.45-1.95c0-.96-.24-1.79-.71-2.53s-1.17-1.31-2.1-1.73-2.1-.62-3.5-.62h-9.52c-3.65,0-4.59.96-4.59,4.39v10.23c0,3.43,1,4.39,4.59,4.39h10.03c1.42,0,2.63-.23,3.6-.68s1.7-1.08,2.2-1.88.75-1.68.75-2.69c0-.93-.2-1.74-.6-2.43Zm-16.84-6.77c0-.25.01-.45.05-.61.12-.54.49-.71,1.33-.71h8.46c.88,0,1.58.21,2.07.63.49.42.72.97.72,1.67,0,.5-.12.92-.37,1.28-.25.36-.59.63-1.02.83s-.92.3-1.47.3h-8.39c-1.08,0-1.38-.29-1.38-1.32v-2.08Zm12.52,10.51c-.52.43-1.33.65-2.45.65h-8.69c-1.08,0-1.38-.29-1.38-1.32v-2.41c0-.25.01-.45.05-.61.12-.55.49-.71,1.33-.71h8.77c.65,0,1.19.12,1.67.35s.83.54,1.08.95.37.86.37,1.39c0,.71-.24,1.29-.76,1.72Z"/>
          <path class="cls-55" d="m76.07,12.68c-.41-.69-.93-1.23-1.58-1.62s-1.35-.6-2.09-.63v-.19c.68-.15,1.28-.42,1.81-.78s.95-.83,1.25-1.4.46-1.24.46-2c0-.98-.25-1.84-.73-2.59s-1.2-1.35-2.16-1.78-2.16-.64-3.59-.64h-9.77c-3.74,0-4.71.98-4.71,4.51v10.5c0,3.52,1.02,4.51,4.71,4.51h10.29c1.46,0,2.7-.24,3.69-.7s1.75-1.11,2.26-1.93.77-1.72.77-2.76c0-.96-.2-1.79-.61-2.49Zm-17.28-6.95c0-.26.01-.46.05-.63.13-.55.5-.73,1.37-.73h8.68c.91,0,1.62.22,2.12.65.5.43.74,1,.74,1.71,0,.51-.13.94-.38,1.32-.26.37-.6.65-1.05.86s-.94.31-1.51.31h-8.61c-1.11,0-1.42-.29-1.42-1.35v-2.13Zm12.85,10.79c-.53.44-1.37.66-2.52.66h-8.91c-1.11,0-1.42-.29-1.42-1.35v-2.48c0-.26.01-.46.05-.63.13-.56.5-.73,1.37-.73h9c.66,0,1.22.12,1.71.36s.85.55,1.11.97.38.88.38,1.43c0,.73-.25,1.32-.78,1.76Z"/>
          <path class="cls-56" d="m78.02,12.36c-.42-.71-.95-1.26-1.62-1.66s-1.39-.62-2.15-.64v-.2c.69-.16,1.32-.43,1.86-.8s.98-.85,1.28-1.44.47-1.27.47-2.06c0-1.01-.25-1.88-.75-2.66s-1.23-1.38-2.21-1.82-2.21-.65-3.68-.65h-10.02c-3.84,0-4.83,1.01-4.83,4.62v10.77c0,3.61,1.05,4.62,4.83,4.62h10.56c1.49,0,2.77-.24,3.79-.72s1.79-1.14,2.32-1.98.79-1.77.79-2.83c0-.98-.21-1.84-.63-2.55Zm-17.72-7.12c0-.26.01-.47.05-.64.13-.56.51-.75,1.4-.75h8.91c.93,0,1.66.22,2.17.67.51.45.76,1.02.76,1.76,0,.52-.13.97-.39,1.35-.26.38-.62.67-1.07.88s-.97.31-1.55.31h-8.83c-1.14,0-1.45-.3-1.45-1.39v-2.19Zm13.18,11.07c-.54.45-1.4.68-2.58.68h-9.14c-1.14,0-1.45-.3-1.45-1.39v-2.54c0-.26.01-.47.05-.64.13-.58.51-.75,1.4-.75h9.23c.68,0,1.25.12,1.76.37s.87.56,1.14,1,.39.9.39,1.47c0,.75-.26,1.36-.8,1.81Z"/>
          <path class="cls-57" d="m79.99,12.13c-.43-.73-.98-1.29-1.66-1.7s-1.42-.63-2.2-.66v-.2c.71-.16,1.35-.44,1.91-.82s1-.88,1.32-1.48.48-1.3.48-2.11c0-1.03-.26-1.93-.76-2.73s-1.26-1.42-2.27-1.87-2.27-.67-3.77-.67h-10.27c-3.93,0-4.95,1.03-4.95,4.74v11.03c0,3.71,1.07,4.74,4.95,4.74h10.82c1.53,0,2.84-.25,3.88-.74s1.84-1.17,2.38-2.03.81-1.81.81-2.9c0-1.01-.21-1.88-.64-2.62Zm-18.16-7.3c0-.27.01-.48.05-.66.13-.58.52-.77,1.44-.77h9.13c.95,0,1.7.23,2.23.68.52.46.78,1.05.78,1.8,0,.54-.13.99-.4,1.38-.27.39-.63.68-1.1.9s-.99.32-1.58.32h-9.05c-1.17,0-1.49-.31-1.49-1.42v-2.24Zm13.5,11.34c-.56.46-1.44.7-2.64.7h-9.37c-1.17,0-1.49-.31-1.49-1.42v-2.6c0-.27.01-.48.05-.66.13-.59.52-.77,1.44-.77h9.46c.7,0,1.29.13,1.8.38s.9.58,1.17,1.02.4.93.4,1.5c0,.77-.26,1.39-.82,1.85Z"/>
          <path class="cls-62" d="m81.97,11.98c-.44-.74-1-1.33-1.71-1.75s-1.46-.65-2.26-.67v-.21c.73-.17,1.38-.45,1.95-.84s1.03-.9,1.35-1.51.49-1.33.49-2.16c0-1.06-.27-1.98-.78-2.79s-1.29-1.45-2.32-1.91-2.32-.69-3.86-.69h-10.52c-4.03,0-5.07,1.06-5.07,4.85v11.3c0,3.8,1.1,4.85,5.07,4.85h11.08c1.57,0,2.9-.26,3.97-.76s1.88-1.2,2.43-2.08.83-1.86.83-2.97c0-1.03-.22-1.93-.66-2.68Zm-18.61-7.48c0-.28.01-.5.06-.67.14-.59.54-.78,1.47-.78h9.35c.98,0,1.75.23,2.28.7.54.47.8,1.07.8,1.84,0,.55-.14,1.02-.41,1.42-.27.4-.65.7-1.13.92s-1.02.33-1.62.33h-9.27c-1.2,0-1.53-.32-1.53-1.46v-2.3Zm13.83,11.62c-.57.48-1.47.72-2.71.72h-9.6c-1.2,0-1.53-.32-1.53-1.46v-2.67c0-.28.01-.5.06-.67.14-.61.54-.78,1.47-.78h9.69c.72,0,1.32.13,1.84.39s.92.59,1.2,1.04.41.95.41,1.54c0,.78-.27,1.42-.84,1.9Z"/>
          <path class="cls-65" d="m83.96,11.92c-.45-.76-1.02-1.36-1.75-1.79s-1.49-.66-2.31-.69v-.21c.75-.17,1.42-.46,2-.86s1.05-.92,1.38-1.55.51-1.37.51-2.21c0-1.08-.27-2.02-.8-2.86s-1.32-1.48-2.38-1.96-2.38-.7-3.96-.7h-10.77c-4.12,0-5.19,1.08-5.19,4.97v11.57c0,3.89,1.13,4.97,5.19,4.97h11.35c1.6,0,2.97-.26,4.07-.77s1.93-1.23,2.49-2.13.84-1.9.84-3.04c0-1.06-.22-1.97-.68-2.75Zm-19.05-7.66c0-.28.01-.51.06-.69.14-.61.55-.8,1.51-.8h9.57c1,0,1.79.24,2.34.72.55.48.82,1.1.82,1.89,0,.56-.14,1.04-.42,1.45-.28.41-.66.72-1.15.94s-1.04.34-1.66.34h-9.49c-1.22,0-1.56-.32-1.56-1.49v-2.35Zm14.16,11.9c-.59.49-1.51.73-2.77.73h-9.83c-1.22,0-1.56-.32-1.56-1.49v-2.73c0-.28.01-.51.06-.69.14-.62.55-.8,1.51-.8h9.92c.73,0,1.35.13,1.89.39s.94.61,1.22,1.07.42.97.42,1.58c0,.8-.28,1.46-.86,1.94Z"/>
          <path class="cls-44" d="m85.95,11.92c-.46-.78-1.05-1.39-1.79-1.83s-1.53-.68-2.36-.71v-.22c.76-.17,1.45-.47,2.05-.88s1.07-.94,1.41-1.58.52-1.4.52-2.26c0-1.11-.28-2.07-.82-2.92s-1.35-1.52-2.43-2-2.43-.72-4.05-.72h-11.02c-4.22,0-5.32,1.11-5.32,5.08v11.84c0,3.98,1.15,5.08,5.32,5.08h11.61c1.64,0,3.04-.27,4.16-.79s1.97-1.26,2.55-2.18.86-1.94.86-3.11c0-1.08-.23-2.02-.69-2.81Zm-19.49-7.84c0-.29.01-.52.06-.71.14-.62.56-.82,1.54-.82h9.8c1.02,0,1.83.24,2.39.73.56.49.84,1.12.84,1.93,0,.58-.14,1.07-.43,1.48-.29.42-.68.73-1.18.97s-1.07.35-1.7.35h-9.71c-1.25,0-1.6-.33-1.6-1.53v-2.41Zm14.49,12.17c-.6.5-1.54.75-2.84.75h-10.05c-1.25,0-1.6-.33-1.6-1.53v-2.79c0-.29.01-.52.06-.71.14-.63.56-.82,1.54-.82h10.16c.75,0,1.38.14,1.93.4s.96.62,1.25,1.09.43.99.43,1.61c0,.82-.28,1.49-.88,1.99Z"/>
          <path class="cls-45" d="m87.94,12c-.47-.8-1.07-1.42-1.83-1.87s-1.56-.69-2.42-.72v-.22c.78-.18,1.48-.48,2.09-.9s1.1-.96,1.44-1.62.53-1.43.53-2.31c0-1.13-.28-2.12-.84-2.99s-1.38-1.55-2.49-2.05-2.49-.74-4.14-.74h-11.27c-4.32,0-5.44,1.13-5.44,5.2v12.11c0,4.07,1.18,5.2,5.44,5.2h11.87c1.68,0,3.11-.27,4.26-.81s2.01-1.28,2.61-2.22.88-1.99.88-3.18c0-1.1-.23-2.06-.71-2.87Zm-19.93-8.01c0-.29.01-.53.06-.72.15-.63.57-.84,1.58-.84h10.02c1.05,0,1.87.25,2.45.75.57.5.85,1.15.85,1.97,0,.59-.15,1.09-.44,1.52-.29.43-.69.75-1.21.99s-1.09.35-1.74.35h-9.93c-1.28,0-1.64-.34-1.64-1.56v-2.46Zm14.82,12.45c-.61.51-1.58.77-2.9.77h-10.28c-1.28,0-1.64-.34-1.64-1.56v-2.86c0-.29.01-.53.06-.72.15-.65.57-.84,1.58-.84h10.39c.77,0,1.41.14,1.97.41s.98.64,1.28,1.12.44,1.02.44,1.65c0,.84-.29,1.53-.9,2.03Z"/>
          <path class="cls-58" d="m89.93,12.14c-.48-.82-1.1-1.45-1.87-1.91s-1.6-.71-2.47-.74v-.23c.8-.18,1.51-.49,2.14-.92s1.12-.98,1.48-1.66.54-1.46.54-2.36c0-1.16-.29-2.17-.86-3.06s-1.41-1.59-2.55-2.09-2.55-.75-4.23-.75h-11.52c-4.41,0-5.56,1.16-5.56,5.32v12.38c0,4.16,1.2,5.32,5.56,5.32h12.14c1.72,0,3.18-.28,4.35-.83s2.06-1.31,2.67-2.27.9-2.03.9-3.25c0-1.13-.24-2.11-.72-2.94Zm-20.37-8.19c0-.3.02-.54.06-.74.15-.65.59-.86,1.61-.86h10.24c1.07,0,1.91.26,2.5.77.59.51.87,1.17.87,2.02,0,.6-.15,1.11-.45,1.55-.3.44-.71.77-1.23,1.01s-1.11.36-1.78.36h-10.15c-1.31,0-1.67-.35-1.67-1.6v-2.51Zm15.15,12.72c-.63.52-1.61.78-2.97.78h-10.51c-1.31,0-1.67-.35-1.67-1.6v-2.92c0-.3.02-.54.06-.74.15-.66.59-.86,1.61-.86h10.62c.78,0,1.44.14,2.02.42s1.01.65,1.31,1.14.45,1.04.45,1.69c0,.86-.29,1.56-.92,2.08Z"/>
          <path class="cls-61" d="m91.9,12.34c-.49-.83-1.12-1.48-1.91-1.95s-1.63-.72-2.52-.75v-.23c.82-.18,1.55-.5,2.18-.94s1.15-1,1.51-1.69.55-1.49.55-2.42c0-1.18-.3-2.21-.88-3.12s-1.44-1.62-2.6-2.14-2.6-.77-4.32-.77h-11.77c-4.51,0-5.68,1.18-5.68,5.43v12.65c0,4.25,1.23,5.43,5.68,5.43h12.4c1.75,0,3.25-.29,4.45-.85s2.1-1.34,2.72-2.32.92-2.08.92-3.32c0-1.15-.24-2.16-.74-3Zm-20.82-8.37c0-.31.02-.55.06-.75.15-.66.6-.88,1.65-.88h10.46c1.09,0,1.95.26,2.55.78.6.52.89,1.2.89,2.06,0,.62-.15,1.14-.46,1.58-.31.45-.72.78-1.26,1.03s-1.14.37-1.82.37h-10.37c-1.34,0-1.71-.35-1.71-1.63v-2.57Zm15.48,13c-.64.53-1.65.8-3.03.8h-10.74c-1.34,0-1.71-.35-1.71-1.63v-2.98c0-.31.02-.55.06-.75.15-.68.6-.88,1.65-.88h10.85c.8,0,1.47.14,2.06.43s1.03.66,1.34,1.17.46,1.06.46,1.72c0,.88-.3,1.59-.94,2.12Z"/>
          <path class="cls-63" d="m93.85,12.59c-.5-.85-1.14-1.51-1.95-2s-1.67-.74-2.58-.77v-.24c.83-.19,1.58-.51,2.23-.96s1.17-1.02,1.54-1.73.57-1.52.57-2.47c0-1.21-.3-2.26-.9-3.19s-1.47-1.66-2.66-2.18-2.66-.79-4.42-.79h-12.02c-4.6,0-5.8,1.21-5.8,5.55v12.92c0,4.34,1.26,5.55,5.8,5.55h12.66c1.79,0,3.32-.29,4.54-.86s2.15-1.37,2.78-2.37.94-2.12.94-3.39c0-1.18-.25-2.2-.75-3.06Zm-21.26-8.55c0-.31.02-.57.06-.77.16-.68.61-.9,1.68-.9h10.68c1.12,0,2,.27,2.61.8.61.53.91,1.23.91,2.11,0,.63-.16,1.16-.47,1.62-.31.46-.74.8-1.29,1.05s-1.16.38-1.85.38h-10.59c-1.37,0-1.74-.36-1.74-1.67v-2.62Zm15.81,13.28c-.65.54-1.68.82-3.1.82h-10.97c-1.37,0-1.74-.36-1.74-1.67v-3.05c0-.31.02-.57.06-.77.16-.69.61-.9,1.68-.9h11.08c.82,0,1.51.15,2.11.44s1.05.68,1.37,1.19.47,1.08.47,1.76c0,.9-.31,1.63-.96,2.17Z"/>
          <path class="cls-64" d="m95.78,12.89c-.51-.87-1.17-1.55-1.99-2.04s-1.7-.75-2.63-.79v-.24c.85-.19,1.61-.52,2.28-.98s1.2-1.05,1.57-1.76.58-1.56.58-2.52c0-1.24-.31-2.31-.91-3.26s-1.5-1.69-2.71-2.23-2.71-.8-4.51-.8h-12.27c-4.7,0-5.92,1.24-5.92,5.66v13.18c0,4.43,1.28,5.66,5.92,5.66h12.93c1.83,0,3.39-.3,4.64-.88s2.19-1.4,2.84-2.42.96-2.17.96-3.46c0-1.2-.25-2.25-.77-3.13Zm-21.7-8.73c0-.32.02-.58.06-.79.16-.69.63-.91,1.72-.91h10.91c1.14,0,2.04.27,2.66.82.63.55.93,1.25.93,2.15,0,.64-.16,1.19-.48,1.65-.32.47-.76.81-1.32,1.07s-1.19.38-1.89.38h-10.81c-1.4,0-1.78-.37-1.78-1.7v-2.68Zm16.14,13.55c-.67.55-1.72.83-3.16.83h-11.2c-1.4,0-1.78-.37-1.78-1.7v-3.11c0-.32.02-.58.06-.79.16-.71.63-.91,1.72-.91h11.31c.83,0,1.54.15,2.15.45s1.07.69,1.4,1.22.48,1.11.48,1.8c0,.91-.31,1.66-.98,2.21Z"/>
          <path class="cls-26" d="m97.68,13.24c-.52-.89-1.19-1.58-2.03-2.08s-1.73-.77-2.68-.8v-.25c.87-.2,1.65-.53,2.32-1s1.22-1.07,1.6-1.8.59-1.59.59-2.57c0-1.26-.32-2.35-.93-3.32s-1.54-1.73-2.77-2.27-2.77-.82-4.6-.82h-12.52c-4.8,0-6.04,1.26-6.04,5.78v13.45c0,4.52,1.31,5.78,6.04,5.78h13.19c1.87,0,3.46-.3,4.73-.9s2.24-1.43,2.9-2.47.98-2.21.98-3.54c0-1.23-.26-2.29-.79-3.19Zm-22.14-8.9c0-.33.02-.59.07-.8.16-.7.64-.93,1.75-.93h11.13c1.16,0,2.08.28,2.72.83.64.56.95,1.28.95,2.19,0,.65-.16,1.21-.49,1.69-.33.47-.77.83-1.34,1.1s-1.21.39-1.93.39h-11.03c-1.42,0-1.82-.38-1.82-1.73v-2.73Zm16.46,13.83c-.68.57-1.75.85-3.22.85h-11.42c-1.42,0-1.82-.38-1.82-1.73v-3.18c0-.33.02-.59.07-.8.16-.72.64-.93,1.75-.93h11.54c.85,0,1.57.15,2.19.46s1.09.71,1.42,1.24.49,1.13.49,1.83c0,.93-.32,1.69-1,2.26Z"/>
          <path class="cls-17" d="m99.55,13.62c-.53-.9-1.21-1.61-2.07-2.12s-1.77-.78-2.74-.82v-.25c.88-.2,1.68-.54,2.37-1.02s1.25-1.09,1.64-1.84.6-1.62.6-2.62c0-1.29-.32-2.4-.95-3.39s-1.57-1.76-2.82-2.32-2.82-.83-4.69-.83h-12.77c-4.89,0-6.16,1.29-6.16,5.89v13.72c0,4.61,1.34,5.89,6.16,5.89h13.46c1.9,0,3.53-.31,4.82-.92s2.28-1.45,2.95-2.52,1-2.25,1-3.61c0-1.25-.26-2.34-.8-3.26Zm-22.59-9.08c0-.33.02-.6.07-.82.17-.72.65-.95,1.79-.95h11.35c1.19,0,2.12.28,2.77.85.65.57.97,1.3.97,2.24,0,.67-.17,1.24-.5,1.72-.33.48-.79.85-1.37,1.12s-1.24.4-1.97.4h-11.25c-1.45,0-1.85-.38-1.85-1.77v-2.79Zm16.79,14.11c-.69.58-1.79.87-3.29.87h-11.65c-1.45,0-1.85-.38-1.85-1.77v-3.24c0-.33.02-.6.07-.82.17-.73.65-.95,1.79-.95h11.77c.87,0,1.6.16,2.24.47s1.11.72,1.45,1.27.5,1.15.5,1.87c0,.95-.33,1.73-1.02,2.3Z"/>
          <path class="cls-18" d="m101.39,14.03c-.54-.92-1.24-1.64-2.11-2.16s-1.8-.8-2.79-.83v-.26c.9-.2,1.71-.55,2.42-1.04s1.27-1.11,1.67-1.87.61-1.65.61-2.67c0-1.31-.33-2.45-.97-3.46s-1.6-1.79-2.88-2.37-2.88-.85-4.78-.85h-13.02c-4.99,0-6.28,1.31-6.28,6.01v13.99c0,4.7,1.36,6.01,6.28,6.01h13.72c1.94,0,3.59-.32,4.92-.94s2.33-1.48,3.01-2.57,1.02-2.3,1.02-3.68c0-1.28-.27-2.39-.82-3.32Zm-23.03-9.26c0-.34.02-.61.07-.83.17-.73.66-.97,1.82-.97h11.57c1.21,0,2.16.29,2.83.87.66.58.99,1.33.99,2.28,0,.68-.17,1.26-.51,1.75-.34.49-.8.86-1.4,1.14s-1.26.41-2.01.41h-11.47c-1.48,0-1.89-.39-1.89-1.8v-2.84Zm17.12,14.38c-.71.59-1.82.89-3.35.89h-11.88c-1.48,0-1.89-.39-1.89-1.8v-3.3c0-.34.02-.61.07-.83.17-.75.66-.97,1.82-.97h12c.89,0,1.63.16,2.28.48s1.14.73,1.48,1.29.51,1.17.51,1.91c0,.97-.33,1.76-1.04,2.35Z"/>
          <path class="cls-49" d="m103.18,14.47c-.55-.94-1.26-1.67-2.15-2.2s-1.84-.82-2.85-.85v-.26c.92-.21,1.75-.56,2.46-1.06s1.29-1.13,1.7-1.91.62-1.68.62-2.72c0-1.34-.34-2.49-.99-3.52s-1.63-1.83-2.93-2.41-2.93-.87-4.87-.87h-13.27c-5.08,0-6.4,1.34-6.4,6.12v14.26c0,4.79,1.39,6.12,6.4,6.12h13.98c1.98,0,3.66-.32,5.01-.95s2.37-1.51,3.07-2.62,1.04-2.34,1.04-3.75c0-1.3-.27-2.43-.83-3.38Zm-23.47-9.44c0-.35.02-.62.07-.85.17-.75.68-.99,1.86-.99h11.8c1.23,0,2.2.29,2.88.88.68.59,1.01,1.35,1.01,2.32,0,.69-.17,1.28-.52,1.79-.35.5-.82.88-1.42,1.16s-1.28.42-2.05.42h-11.69c-1.51,0-1.93-.4-1.93-1.84v-2.9Zm17.45,14.66c-.72.6-1.86.9-3.42.9h-12.11c-1.51,0-1.93-.4-1.93-1.84v-3.37c0-.35.02-.62.07-.85.17-.76.68-.99,1.86-.99h12.23c.9,0,1.66.16,2.32.49s1.16.75,1.51,1.32.52,1.2.52,1.94c0,.99-.34,1.8-1.06,2.39Z"/>
          <path class="cls-50" d="m104.93,14.93c-.56-.96-1.29-1.7-2.19-2.24s-1.87-.83-2.9-.87v-.27c.94-.21,1.78-.58,2.51-1.08s1.32-1.15,1.73-1.94.64-1.71.64-2.77c0-1.36-.34-2.54-1.01-3.59s-1.66-1.86-2.99-2.46-2.99-.88-4.97-.88h-13.52c-5.18,0-6.52,1.36-6.52,6.24v14.53c0,4.88,1.41,6.24,6.52,6.24h14.25c2.01,0,3.73-.33,5.11-.97s2.42-1.54,3.13-2.67,1.06-2.39,1.06-3.82c0-1.33-.28-2.48-.85-3.45Zm-23.91-9.61c0-.35.02-.64.07-.87.18-.76.69-1.01,1.89-1.01h12.02c1.26,0,2.24.3,2.93.9.69.6,1.03,1.38,1.03,2.37,0,.71-.18,1.31-.53,1.82-.35.51-.83.9-1.45,1.18s-1.31.42-2.09.42h-11.91c-1.54,0-1.96-.41-1.96-1.87v-2.95Zm17.78,14.93c-.73.61-1.89.92-3.48.92h-12.34c-1.54,0-1.96-.41-1.96-1.87v-3.43c0-.35.02-.64.07-.87.18-.78.69-1.01,1.89-1.01h12.46c.92,0,1.69.17,2.37.49s1.18.76,1.54,1.34.53,1.22.53,1.98c0,1.01-.35,1.83-1.08,2.44Z"/>
          <path class="cls-54" d="m106.62,15.4c-.57-.97-1.31-1.73-2.23-2.29s-1.91-.85-2.95-.88v-.27c.95-.22,1.81-.59,2.56-1.1s1.34-1.17,1.76-1.98.65-1.75.65-2.83c0-1.39-.35-2.59-1.03-3.65s-1.69-1.9-3.04-2.5-3.04-.9-5.06-.9h-13.77c-5.27,0-6.64,1.39-6.64,6.35v14.8c0,4.97,1.44,6.35,6.64,6.35h14.51c2.05,0,3.8-.33,5.2-.99s2.46-1.57,3.19-2.72,1.08-2.43,1.08-3.89c0-1.35-.28-2.52-.86-3.51Zm-24.36-9.79c0-.36.02-.65.07-.88.18-.77.7-1.03,1.93-1.03h12.24c1.28,0,2.29.31,2.99.92.7.61,1.04,1.4,1.04,2.41,0,.72-.18,1.33-.54,1.85-.36.52-.85.91-1.48,1.21s-1.33.43-2.12.43h-12.13c-1.57,0-2-.41-2-1.91v-3.01Zm18.11,15.21c-.75.62-1.93.94-3.55.94h-12.57c-1.57,0-2-.41-2-1.91v-3.49c0-.36.02-.65.07-.88.18-.79.7-1.03,1.93-1.03h12.69c.94,0,1.72.17,2.41.5s1.2.78,1.57,1.37.54,1.24.54,2.02c0,1.03-.35,1.86-1.1,2.48Z"/>
          <path class="cls-51" d="m108.26,15.89c-.58-.99-1.33-1.77-2.27-2.33s-1.94-.86-3.01-.9v-.27c.97-.22,1.84-.6,2.6-1.12s1.37-1.2,1.8-2.02.66-1.78.66-2.88c0-1.41-.35-2.64-1.04-3.72s-1.72-1.93-3.1-2.55-3.1-.92-5.15-.92h-14.02c-5.37,0-6.76,1.41-6.76,6.47v15.07c0,5.06,1.47,6.47,6.76,6.47h14.77c2.09,0,3.87-.34,5.3-1.01s2.51-1.6,3.24-2.77,1.1-2.47,1.1-3.96c0-1.37-.29-2.57-.88-3.57Zm-24.8-9.97c0-.37.02-.66.07-.9.18-.79.71-1.04,1.96-1.04h12.46c1.3,0,2.33.31,3.04.93.71.62,1.06,1.43,1.06,2.46,0,.73-.18,1.36-.55,1.89-.37.53-.86.93-1.5,1.23s-1.36.44-2.16.44h-12.35c-1.59,0-2.03-.42-2.03-1.94v-3.06Zm18.44,15.49c-.76.63-1.96.95-3.61.95h-12.79c-1.59,0-2.03-.42-2.03-1.94v-3.56c0-.37.02-.66.07-.9.18-.81.71-1.04,1.96-1.04h12.92c.95,0,1.76.17,2.46.51s1.22.79,1.59,1.39.55,1.26.55,2.05c0,1.04-.36,1.9-1.12,2.53Z"/>
          <path class="cls-36" d="m109.83,16.38c-.59-1.01-1.36-1.8-2.31-2.37s-1.98-.88-3.06-.91v-.28c.99-.22,1.88-.61,2.65-1.14s1.39-1.22,1.83-2.05.67-1.81.67-2.93c0-1.44-.36-2.68-1.06-3.79s-1.75-1.97-3.15-2.59-3.15-.93-5.24-.93h-14.27c-5.47,0-6.88,1.44-6.88,6.59v15.33c0,5.15,1.49,6.59,6.88,6.59h15.04c2.13,0,3.94-.35,5.39-1.03s2.55-1.63,3.3-2.82,1.12-2.52,1.12-4.03c0-1.4-.29-2.61-.9-3.64Zm-25.24-10.15c0-.37.02-.67.07-.91.19-.8.73-1.06,2-1.06h12.69c1.32,0,2.37.32,3.1.95.73.63,1.08,1.46,1.08,2.5,0,.75-.19,1.38-.56,1.92-.37.54-.88.95-1.53,1.25s-1.38.45-2.2.45h-12.57c-1.62,0-2.07-.43-2.07-1.98v-3.12Zm18.77,15.76c-.78.64-2,.97-3.68.97h-13.02c-1.62,0-2.07-.43-2.07-1.98v-3.62c0-.37.02-.67.07-.91.19-.82.73-1.06,2-1.06h13.15c.97,0,1.79.18,2.5.52s1.25.8,1.62,1.42.56,1.29.56,2.09c0,1.06-.36,1.93-1.14,2.57Z"/>
          <path class="cls-31" d="m111.34,16.87c-.6-1.03-1.38-1.83-2.35-2.41s-2.01-.89-3.11-.93v-.28c1.01-.23,1.91-.62,2.7-1.16s1.42-1.24,1.86-2.09.68-1.84.68-2.98c0-1.46-.37-2.73-1.08-3.85s-1.78-2-3.21-2.64-3.21-.95-5.33-.95h-14.52c-5.56,0-7,1.46-7,6.7v15.6c0,5.24,1.52,6.7,7,6.7h15.3c2.16,0,4.01-.35,5.49-1.04s2.6-1.65,3.36-2.87,1.14-2.56,1.14-4.1c0-1.42-.3-2.66-.91-3.7Zm-25.68-10.33c0-.38.02-.68.08-.93.19-.82.74-1.08,2.03-1.08h12.91c1.35,0,2.41.32,3.15.97.74.65,1.1,1.48,1.1,2.54,0,.76-.19,1.4-.57,1.96-.38.55-.89.96-1.56,1.27s-1.4.46-2.24.46h-12.79c-1.65,0-2.11-.44-2.11-2.01v-3.17Zm19.1,16.04c-.79.66-2.03.99-3.74.99h-13.25c-1.65,0-2.11-.44-2.11-2.01v-3.68c0-.38.02-.68.08-.93.19-.84.74-1.08,2.03-1.08h13.38c.99,0,1.82.18,2.54.53s1.27.82,1.65,1.44.57,1.31.57,2.13c0,1.08-.37,1.97-1.16,2.62Z"/>
          <path class="cls-30" d="m112.78,17.36c-.61-1.05-1.41-1.86-2.39-2.45s-2.05-.91-3.17-.95v-.29c1.02-.23,1.94-.63,2.74-1.18s1.44-1.26,1.89-2.12.69-1.87.69-3.03c0-1.49-.37-2.78-1.1-3.92s-1.81-2.04-3.26-2.68-3.26-.97-5.43-.97h-14.77c-5.66,0-7.12,1.49-7.12,6.82v15.87c0,5.33,1.54,6.82,7.12,6.82h15.56c2.2,0,4.08-.36,5.58-1.06s2.64-1.68,3.42-2.92,1.16-2.61,1.16-4.17c0-1.45-.3-2.71-.93-3.77Zm-26.13-10.5c0-.39.02-.7.08-.95.19-.83.75-1.1,2.07-1.1h13.13c1.37,0,2.45.33,3.21.98.75.66,1.12,1.51,1.12,2.59,0,.77-.19,1.43-.58,1.99-.39.56-.91.98-1.58,1.29s-1.43.46-2.28.46h-13.01c-1.68,0-2.14-.44-2.14-2.05v-3.22Zm19.43,16.32c-.8.67-2.07,1-3.8,1h-13.48c-1.68,0-2.14-.44-2.14-2.05v-3.75c0-.39.02-.7.08-.95.19-.85.75-1.1,2.07-1.1h13.61c1,0,1.85.18,2.59.54s1.29.83,1.68,1.47.58,1.33.58,2.16c0,1.1-.38,2-1.18,2.66Z"/>
          <path class="cls-52" d="m114.14,17.84c-.62-1.06-1.43-1.89-2.43-2.49s-2.08-.92-3.22-.96v-.29c1.04-.24,1.98-.64,2.79-1.2s1.47-1.28,1.92-2.16.71-1.9.71-3.08c0-1.51-.38-2.82-1.12-3.99s-1.84-2.07-3.32-2.73-3.32-.98-5.52-.98h-15.02c-5.75,0-7.25,1.51-7.25,6.93v16.14c0,5.42,1.57,6.93,7.25,6.93h15.83c2.24,0,4.15-.36,5.67-1.08s2.69-1.71,3.48-2.97,1.18-2.65,1.18-4.24c0-1.47-.31-2.75-.94-3.83Zm-26.57-10.68c0-.39.02-.71.08-.96.2-.84.77-1.12,2.1-1.12h13.35c1.39,0,2.49.33,3.26,1,.77.67,1.14,1.53,1.14,2.63,0,.79-.2,1.45-.59,2.02-.39.57-.92,1-1.61,1.32s-1.45.47-2.32.47h-13.23c-1.71,0-2.18-.45-2.18-2.08v-3.28Zm19.75,16.59c-.82.68-2.1,1.02-3.87,1.02h-13.71c-1.71,0-2.18-.45-2.18-2.08v-3.81c0-.39.02-.71.08-.96.2-.86.77-1.12,2.1-1.12h13.84c1.02,0,1.88.18,2.63.55s1.31.85,1.71,1.49.59,1.35.59,2.2c0,1.12-.38,2.03-1.2,2.71Z"/>
          <path class="cls-53" d="m115.42,18.3c-.63-1.08-1.45-1.92-2.48-2.54s-2.12-.94-3.27-.98v-.3c1.06-.24,2.01-.65,2.83-1.22s1.49-1.3,1.96-2.2.72-1.94.72-3.13c0-1.54-.39-2.87-1.14-4.05s-1.87-2.1-3.37-2.77-3.37-1-5.61-1h-15.27c-5.85,0-7.37,1.54-7.37,7.05v16.41c0,5.51,1.6,7.05,7.37,7.05h16.09c2.28,0,4.22-.37,5.77-1.1s2.73-1.74,3.53-3.01,1.2-2.7,1.2-4.31c0-1.5-.32-2.8-.96-3.89Zm-27.01-10.86c0-.4.02-.72.08-.98.2-.86.78-1.14,2.14-1.14h13.57c1.42,0,2.54.34,3.31,1.02.78.68,1.16,1.56,1.16,2.68,0,.8-.2,1.48-.6,2.06-.4.58-.94,1.01-1.64,1.34s-1.48.48-2.36.48h-13.46c-1.74,0-2.22-.46-2.22-2.12v-3.33Zm20.08,16.87c-.83.69-2.14,1.04-3.93,1.04h-13.93c-1.74,0-2.22-.46-2.22-2.12v-3.87c0-.4.02-.72.08-.98.2-.88.78-1.14,2.14-1.14h14.07c1.04,0,1.91.19,2.68.56s1.33.86,1.74,1.52.6,1.38.6,2.24c0,1.14-.39,2.07-1.22,2.75Z"/>
          <path class="cls-29" d="m116.62,18.74c-.64-1.1-1.48-1.96-2.52-2.58s-2.15-.95-3.33-.99v-.3c1.08-.24,2.04-.66,2.88-1.24s1.51-1.32,1.99-2.23.73-1.97.73-3.19c0-1.56-.39-2.92-1.16-4.12s-1.9-2.14-3.43-2.82-3.43-1.01-5.7-1.01h-15.52c-5.94,0-7.49,1.56-7.49,7.16v16.68c0,5.6,1.62,7.16,7.49,7.16h16.35c2.31,0,4.29-.38,5.86-1.12s2.77-1.77,3.59-3.06,1.22-2.74,1.22-4.38c0-1.52-.32-2.84-.97-3.96Zm-27.45-11.04c0-.41.02-.73.08-.99.2-.87.79-1.16,2.17-1.16h13.8c1.44,0,2.58.34,3.37,1.03.79.69,1.18,1.58,1.18,2.72,0,.81-.2,1.5-.61,2.09-.41.59-.96,1.03-1.66,1.36s-1.5.49-2.39.49h-13.68c-1.77,0-2.25-.47-2.25-2.15v-3.39Zm20.41,17.15c-.84.7-2.17,1.06-4,1.06h-14.16c-1.77,0-2.25-.47-2.25-2.15v-3.94c0-.41.02-.73.08-.99.2-.89.79-1.16,2.17-1.16h14.3c1.06,0,1.94.19,2.72.57s1.35.88,1.77,1.54.61,1.4.61,2.27c0,1.16-.4,2.1-1.24,2.8Z"/>
          <path class="cls-28" d="m117.72,19.15c-.66-1.12-1.5-1.99-2.56-2.62s-2.19-.97-3.38-1.01v-.31c1.09-.25,2.07-.67,2.93-1.26s1.54-1.34,2.02-2.27.74-2,.74-3.24c0-1.59-.4-2.96-1.17-4.19s-1.93-2.17-3.48-2.87-3.48-1.03-5.79-1.03h-15.77c-6.04,0-7.61,1.59-7.61,7.28v16.95c0,5.69,1.65,7.28,7.61,7.28h16.62c2.35,0,4.35-.38,5.96-1.13s2.82-1.8,3.65-3.11,1.24-2.78,1.24-4.45c0-1.55-.33-2.89-.99-4.02Zm-27.89-11.22c0-.41.02-.74.08-1.01.21-.89.8-1.18,2.21-1.18h14.02c1.46,0,2.62.35,3.42,1.05.8.7,1.2,1.61,1.2,2.76,0,.82-.21,1.53-.62,2.12-.41.6-.97,1.05-1.69,1.38s-1.53.49-2.43.49h-13.9c-1.79,0-2.29-.47-2.29-2.19v-3.44Zm20.74,17.42c-.86.71-2.21,1.07-4.06,1.07h-14.39c-1.79,0-2.29-.47-2.29-2.19v-4c0-.41.02-.74.08-1.01.21-.91.8-1.18,2.21-1.18h14.53c1.07,0,1.98.19,2.76.58s1.38.89,1.79,1.57.62,1.42.62,2.31c0,1.18-.4,2.13-1.26,2.85Z"/>
          <path class="cls-27" d="m118.73,19.53c-.67-1.13-1.52-2.02-2.6-2.66s-2.22-.98-3.43-1.03v-.31c1.11-.25,2.11-.68,2.97-1.28s1.56-1.37,2.05-2.3.75-2.03.75-3.29c0-1.61-.41-3.01-1.19-4.25s-1.96-2.21-3.54-2.91-3.54-1.05-5.89-1.05h-16.02c-6.14,0-7.73,1.61-7.73,7.39v17.22c0,5.78,1.68,7.39,7.73,7.39h16.88c2.39,0,4.42-.39,6.05-1.15s2.86-1.83,3.71-3.16,1.26-2.83,1.26-4.52c0-1.57-.33-2.93-1.01-4.08Zm-28.34-11.39c0-.42.02-.75.08-1.03.21-.9.82-1.19,2.24-1.19h14.24c1.49,0,2.66.36,3.48,1.07.82.71,1.21,1.63,1.21,2.81,0,.84-.21,1.55-.63,2.16-.42.61-.99,1.06-1.72,1.4s-1.55.5-2.47.5h-14.12c-1.82,0-2.32-.48-2.32-2.22v-3.5Zm21.07,17.7c-.87.72-2.24,1.09-4.13,1.09h-14.62c-1.82,0-2.32-.48-2.32-2.22v-4.06c0-.42.02-.75.08-1.03.21-.92.82-1.19,2.24-1.19h14.77c1.09,0,2.01.2,2.81.59s1.4.9,1.82,1.59.63,1.45.63,2.35c0,1.19-.41,2.17-1.28,2.89Z"/>
          <path class="cls-33" d="m119.63,19.88c-.68-1.15-1.55-2.05-2.64-2.7s-2.25-1-3.49-1.04v-.32c1.13-.26,2.14-.69,3.02-1.3s1.59-1.39,2.08-2.34.77-2.06.77-3.34c0-1.64-.41-3.06-1.21-4.32s-2-2.24-3.59-2.96-3.59-1.06-5.98-1.06h-16.27c-6.23,0-7.85,1.64-7.85,7.51v17.48c0,5.87,1.7,7.51,7.85,7.51h17.14c2.42,0,4.49-.4,6.15-1.17s2.91-1.85,3.76-3.21,1.28-2.87,1.28-4.59c0-1.6-.34-2.98-1.02-4.15Zm-28.78-11.57c0-.43.02-.77.09-1.04.21-.91.83-1.21,2.28-1.21h14.46c1.51,0,2.7.36,3.53,1.08.83.72,1.23,1.66,1.23,2.85,0,.85-.21,1.57-.64,2.19-.43.62-1,1.08-1.74,1.43s-1.57.51-2.51.51h-14.34c-1.85,0-2.36-.49-2.36-2.25v-3.55Zm21.4,17.97c-.88.73-2.28,1.11-4.19,1.11h-14.85c-1.85,0-2.36-.49-2.36-2.25v-4.13c0-.43.02-.77.09-1.04.21-.94.83-1.21,2.28-1.21h15c1.11,0,2.04.2,2.85.6s1.42.92,1.85,1.62.64,1.47.64,2.38c0,1.21-.42,2.2-1.3,2.94Z"/>
          <path class="cls-32" d="m120.43,20.18c-.69-1.17-1.57-2.08-2.68-2.74s-2.29-1.02-3.54-1.06v-.32c1.14-.26,2.17-.7,3.07-1.32s1.61-1.41,2.12-2.38.78-2.1.78-3.39c0-1.66-.42-3.11-1.23-4.38s-2.03-2.28-3.65-3-3.65-1.08-6.07-1.08h-16.52c-6.33,0-7.97,1.66-7.97,7.62v17.75c0,5.96,1.73,7.62,7.97,7.62h17.41c2.46,0,4.56-.4,6.24-1.19s2.95-1.88,3.82-3.26,1.3-2.92,1.3-4.67c0-1.62-.34-3.03-1.04-4.21Zm-29.22-11.75c0-.43.02-.78.09-1.06.22-.93.84-1.23,2.31-1.23h14.69c1.53,0,2.74.37,3.59,1.1.84.73,1.25,1.68,1.25,2.89,0,.86-.22,1.6-.65,2.22-.43.63-1.02,1.1-1.77,1.45s-1.6.52-2.55.52h-14.56c-1.88,0-2.4-.5-2.4-2.29v-3.61Zm21.73,18.25c-.9.75-2.31,1.12-4.25,1.12h-15.08c-1.88,0-2.4-.5-2.4-2.29v-4.19c0-.43.02-.78.09-1.06.22-.95.84-1.23,2.31-1.23h15.23c1.12,0,2.07.2,2.89.6s1.44.93,1.88,1.64.65,1.49.65,2.42c0,1.23-.42,2.24-1.32,2.98Z"/>
          <path class="cls-37" d="m121.12,20.44c-.7-1.19-1.6-2.11-2.72-2.78s-2.32-1.03-3.6-1.07v-.33c1.16-.26,2.21-.71,3.11-1.34s1.64-1.43,2.15-2.41.79-2.13.79-3.44c0-1.69-.42-3.15-1.25-4.45s-2.06-2.31-3.71-3.05-3.71-1.1-6.16-1.1h-16.77c-6.42,0-8.09,1.69-8.09,7.74v18.02c0,6.05,1.75,7.74,8.09,7.74h17.67c2.5,0,4.63-.41,6.34-1.21s3-1.91,3.88-3.31,1.32-2.96,1.32-4.74c0-1.64-.35-3.07-1.05-4.28Zm-29.66-11.93c0-.44.02-.79.09-1.07.22-.94.85-1.25,2.35-1.25h14.91c1.56,0,2.78.37,3.64,1.12.85.75,1.27,1.71,1.27,2.94,0,.88-.22,1.62-.66,2.26-.44.64-1.03,1.11-1.8,1.47s-1.62.53-2.59.53h-14.78c-1.91,0-2.43-.5-2.43-2.32v-3.66Zm22.06,18.53c-.91.76-2.35,1.14-4.32,1.14h-15.3c-1.91,0-2.43-.5-2.43-2.32v-4.25c0-.44.02-.79.09-1.07.22-.96.85-1.25,2.35-1.25h15.46c1.14,0,2.1.21,2.94.61s1.46.95,1.91,1.67.66,1.51.66,2.46c0,1.25-.43,2.27-1.34,3.03Z"/>
          <path class="cls-38" d="m121.69,20.64c-.71-1.2-1.62-2.14-2.76-2.83s-2.36-1.05-3.65-1.09v-.33c1.18-.27,2.24-.72,3.16-1.36s1.66-1.45,2.18-2.45.8-2.16.8-3.49c0-1.71-.43-3.2-1.27-4.52s-2.09-2.35-3.76-3.09-3.76-1.11-6.25-1.11h-17.02c-6.52,0-8.21,1.71-8.21,7.85v18.29c0,6.14,1.78,7.85,8.21,7.85h17.94c2.54,0,4.7-.41,6.43-1.22s3.04-1.94,3.94-3.36,1.34-3,1.34-4.81c0-1.67-.35-3.12-1.07-4.34Zm-30.11-12.1c0-.45.02-.8.09-1.09.22-.96.87-1.27,2.38-1.27h15.13c1.58,0,2.83.38,3.69,1.13.87.76,1.29,1.74,1.29,2.98,0,.89-.22,1.65-.67,2.29-.44.65-1.05,1.13-1.82,1.49s-1.65.53-2.63.53h-15c-1.94,0-2.47-.51-2.47-2.36v-3.72Zm22.39,18.8c-.92.77-2.38,1.16-4.38,1.16h-15.53c-1.94,0-2.47-.51-2.47-2.36v-4.32c0-.45.02-.8.09-1.09.22-.98.87-1.27,2.38-1.27h15.69c1.16,0,2.13.21,2.98.62s1.49.96,1.94,1.69.67,1.54.67,2.49c0,1.27-.43,2.3-1.36,3.07Z"/>
          <path class="cls-48" d="m122.15,20.79c-.72-1.22-1.64-2.18-2.8-2.87s-2.39-1.06-3.7-1.11v-.34c1.2-.27,2.27-.74,3.21-1.38s1.68-1.47,2.21-2.48.81-2.19.81-3.54c0-1.74-.44-3.25-1.29-4.58s-2.12-2.38-3.82-3.14-3.82-1.13-6.34-1.13h-17.27c-6.62,0-8.33,1.74-8.33,7.97v18.56c0,6.23,1.81,7.97,8.33,7.97h18.2c2.57,0,4.77-.42,6.53-1.24s3.09-1.97,4-3.41,1.35-3.05,1.35-4.88c0-1.69-.36-3.16-1.08-4.4Zm-30.55-12.28c0-.45.02-.81.09-1.11.23-.97.88-1.29,2.42-1.29h15.35c1.6,0,2.87.38,3.75,1.15.88.77,1.31,1.76,1.31,3.03,0,.9-.23,1.67-.68,2.33-.45.65-1.06,1.15-1.85,1.51s-1.67.54-2.66.54h-15.22c-1.96,0-2.51-.52-2.51-2.39v-3.77Zm22.71,19.08c-.94.78-2.42,1.17-4.45,1.17h-15.76c-1.96,0-2.51-.52-2.51-2.39v-4.38c0-.45.02-.81.09-1.11.23-.99.88-1.29,2.42-1.29h15.92c1.17,0,2.16.21,3.03.63s1.51.97,1.96,1.72.68,1.56.68,2.53c0,1.29-.44,2.34-1.38,3.12Z"/>
          <path class="cls-39" d="m122.47,20.87c-.73-1.24-1.67-2.2-2.84-2.91-1.17-.69-2.43-1.08-3.76-1.12v-.34c1.21-.27,2.31-.73,3.25-1.4.96-.64,1.72-1.49,2.24-2.52.55-1.03.82-2.22.82-3.6,0-1.76-.44-3.3-1.31-4.65-.85-1.35-2.15-2.41-3.87-3.18-1.72-.76-3.87-1.15-6.44-1.15h-17.52c-6.71,0-8.45,1.76-8.45,8.09v18.83c0,6.32,1.83,8.09,8.45,8.09h18.46c2.61,0,4.83-.44,6.62-1.26,1.79-.85,3.14-1.99,4.05-3.46.92-1.44,1.37-3.09,1.37-4.95,0-1.72-.37-3.21-1.1-4.47Zm-30.99-12.46c0-.46.02-.82.09-1.12.23-.99.89-1.31,2.45-1.31h15.58c1.63,0,2.91.39,3.8,1.17.89.78,1.33,1.79,1.33,3.07,0,.92-.23,1.7-.69,2.36-.46.66-1.08,1.17-1.88,1.53-.78.37-1.7.55-2.7.55h-15.44c-1.99,0-2.54-.53-2.54-2.43v-3.83Zm23.04,19.36c-.96.78-2.45,1.19-4.51,1.19h-15.99c-1.99,0-2.54-.53-2.54-2.43v-4.44c0-.46.02-.82.09-1.12.23-1.01.89-1.31,2.45-1.31h16.15c1.19,0,2.2.21,3.07.64.87.41,1.53.98,1.99,1.74.46.73.69,1.58.69,2.57,0,1.31-.46,2.36-1.4,3.16Z"/>
        </g>
      </g>
      <path class="cls-66" d="m122.47,20.87c-.73-1.24-1.67-2.2-2.84-2.91-1.17-.69-2.43-1.08-3.76-1.12v-.34c1.21-.27,2.31-.73,3.25-1.4.96-.64,1.72-1.49,2.24-2.52.55-1.03.82-2.22.82-3.6,0-1.76-.44-3.3-1.31-4.65-.85-1.35-2.15-2.41-3.87-3.18-1.72-.76-3.87-1.15-6.44-1.15h-17.52c-6.71,0-8.45,1.76-8.45,8.09v18.83c0,6.32,1.83,8.09,8.45,8.09h18.46c2.61,0,4.83-.44,6.62-1.26,1.79-.85,3.14-1.99,4.05-3.46.92-1.44,1.37-3.09,1.37-4.95,0-1.72-.37-3.21-1.1-4.47Zm-30.99-12.46c0-.46.02-.82.09-1.12.23-.99.89-1.31,2.45-1.31h15.58c1.63,0,2.91.39,3.8,1.17.89.78,1.33,1.79,1.33,3.07,0,.92-.23,1.7-.69,2.36-.46.66-1.08,1.17-1.88,1.53-.78.37-1.7.55-2.7.55h-15.44c-1.99,0-2.54-.53-2.54-2.43v-3.83Zm23.04,19.36c-.96.78-2.45,1.19-4.51,1.19h-15.99c-1.99,0-2.54-.53-2.54-2.43v-4.44c0-.46.02-.82.09-1.12.23-1.01.89-1.31,2.45-1.31h16.15c1.19,0,2.2.21,3.07.64.87.41,1.53.98,1.99,1.74.46.73.69,1.58.69,2.57,0,1.31-.46,2.36-1.4,3.16Z"/>
      <g>
        <path class="cls-66" d="m1.71,64.48c-1.09,0-1.71-.62-1.71-1.71v-16.45c0-1.09.62-1.71,1.71-1.71h5.57c4.2,0,6.49,1.82,6.49,4.92,0,2.41-1.2,3.75-2.8,4.22,2.38.42,3.92,2.43,3.92,4.95,0,3.38-2.43,5.76-7.13,5.76H1.71Zm1.57-11.55h4c2.01,0,3.19-.92,3.19-2.77,0-1.73-1.17-2.74-3.19-2.74H3.27v5.51Zm0,8.75h4.48c2.41,0,3.83-1.15,3.83-3.05s-1.4-3.22-3.75-3.22H3.27v6.27Z"/>
        <path class="cls-66" d="m16.81,57.21c0-4.34,3.3-7.55,7.78-7.55s7.78,3.22,7.78,7.55-3.3,7.55-7.78,7.55-7.78-3.19-7.78-7.55Zm12.45,0c0-2.66-1.99-4.67-4.67-4.67s-4.67,2.01-4.67,4.67,2.01,4.67,4.67,4.67,4.67-2.01,4.67-4.67Z"/>
        <path class="cls-66" d="m50.73,57.26c0,4.28-2.83,7.52-7.3,7.52-2.15,0-4.22-1.06-5.31-2.94v1.17c0,1.06-.78,1.62-1.59,1.62s-1.59-.56-1.59-1.62v-18.07c0-1.06.81-1.62,1.59-1.62s1.59.56,1.59,1.62v7.97c.84-2.01,2.88-3.24,5.48-3.24,4.42,0,7.13,3.41,7.13,7.58Zm-3.22-.03c0-2.74-1.99-4.67-4.73-4.67s-4.64,2.01-4.64,4.67,1.93,4.64,4.64,4.64,4.73-1.93,4.73-4.64Z"/>
        <path class="cls-66" d="m68.21,51.44v11.61c0,1.03-.78,1.59-1.59,1.59s-1.62-.56-1.62-1.59v-1.54c-.81,1.99-2.85,3.24-5.48,3.24-4.39,0-7.13-3.38-7.13-7.58s2.85-7.52,7.3-7.52c2.15,0,4.22,1.06,5.31,2.94v-1.15c0-1.06.81-1.59,1.62-1.59s1.59.53,1.59,1.59Zm-3.24,5.76c0-2.63-1.93-4.64-4.64-4.64s-4.7,1.93-4.7,4.64,1.96,4.67,4.7,4.67,4.64-2.01,4.64-4.67Z"/>
        <path class="cls-66" d="m78.31,49.96c.67,0,1.26.56,1.26,1.26s-.59,1.26-1.26,1.26h-2.1v10.54c0,1.06-.81,1.62-1.59,1.62s-1.62-.56-1.62-1.62v-10.54h-1.15c-.67,0-1.26-.56-1.26-1.26s.59-1.26,1.26-1.26h1.15v-2.77c0-1.06.84-1.59,1.62-1.59s1.59.53,1.59,1.59v2.77h2.1Z"/>
        <path class="cls-66" d="m90.22,51.19c0,.56-.36,1.48-1.79,1.51-2.04.03-3.33,1.12-3.33,3.13v7.19c0,1.06-.78,1.62-1.59,1.62s-1.59-.56-1.59-1.62v-11.61c0-1.06.81-1.59,1.59-1.59s1.59.53,1.59,1.59v.64c.64-1.2,1.71-2.01,3.36-2.15,1.26-.11,1.76.62,1.76,1.29Z"/>
        <path class="cls-66" d="m90.78,57.21c0-4.34,3.3-7.55,7.78-7.55s7.78,3.22,7.78,7.55-3.3,7.55-7.78,7.55-7.78-3.19-7.78-7.55Zm12.45,0c0-2.66-1.99-4.67-4.67-4.67s-4.67,2.01-4.67,4.67,2.01,4.67,4.67,4.67,4.67-2.01,4.67-4.67Z"/>
        <path class="cls-66" d="m122.77,55.97v6.99c0,1.09-.81,1.68-1.62,1.68s-1.62-.59-1.62-1.68v-6.52c0-3.08-1.76-4.03-3.58-4.03-2.27,0-3.78,1.45-3.8,4.2v6.4c0,1.04-.81,1.59-1.62,1.59s-1.62-.56-1.62-1.59v-11.61c0-1.06.81-1.59,1.62-1.59s1.62.53,1.62,1.59v.87c.92-1.65,2.52-2.63,4.75-2.63,3.08,0,5.87,1.87,5.87,6.32Z"/>
      </g>
    </g>
  </g>
</svg>