<?xml version="1.0" encoding="UTF-8"?>
<svg id="Layer_2" data-name="Layer 2" xmlns="http://www.w3.org/2000/svg" viewBox="0 0 165 29">
  <defs>
    <style>
      .cls-1 {
        fill: none;
      }

      .cls-1, .cls-2 {
        stroke-width: 0px;
      }

      .cls-2 {
        fill: #000024;
      }
    </style>
  </defs>
  <g id="Layer_1-2" data-name="Layer 1">
    <g>
      <rect class="cls-1" width="165" height="29"/>
      <g>
        <path class="cls-2" d="m2.28,28.59c-1.46,0-2.28-.82-2.28-2.28V4.32c0-1.46.82-2.28,2.28-2.28h7.44c5.61,0,8.68,2.43,8.68,6.58,0,3.22-1.61,5.01-3.74,5.65,3.18.56,5.24,3.25,5.24,6.62,0,4.53-3.25,7.7-9.54,7.7H2.28Zm2.09-15.45h5.35c2.69,0,4.26-1.23,4.26-3.7,0-2.32-1.57-3.67-4.26-3.67h-5.35v7.37Zm0,11.71h5.98c3.22,0,5.12-1.53,5.12-4.08s-1.87-4.3-5.01-4.3h-6.1v8.38Z"/>
        <path class="cls-2" d="m22.48,18.86c0-5.8,4.41-10.1,10.4-10.1s10.4,4.3,10.4,10.1-4.41,10.1-10.4,10.1-10.4-4.26-10.4-10.1Zm16.64,0c0-3.55-2.66-6.25-6.25-6.25s-6.25,2.69-6.25,6.25,2.69,6.25,6.25,6.25,6.25-2.69,6.25-6.25Z"/>
        <path class="cls-2" d="m67.85,18.94c0,5.72-3.78,10.06-9.76,10.06-2.88,0-5.65-1.42-7.11-3.93v1.57c0,1.42-1.05,2.17-2.13,2.17s-2.13-.75-2.13-2.17V2.48c0-1.42,1.08-2.17,2.13-2.17s2.13.75,2.13,2.17v10.66c1.12-2.69,3.85-4.34,7.33-4.34,5.91,0,9.54,4.56,9.54,10.14Zm-4.3-.04c0-3.67-2.66-6.25-6.32-6.25s-6.21,2.69-6.21,6.25,2.58,6.21,6.21,6.21,6.32-2.58,6.32-6.21Z"/>
        <path class="cls-2" d="m91.23,11.16v15.52c0,1.38-1.05,2.13-2.13,2.13s-2.17-.75-2.17-2.13v-2.06c-1.08,2.66-3.81,4.34-7.33,4.34-5.87,0-9.54-4.53-9.54-10.14s3.81-10.06,9.76-10.06c2.88,0,5.65,1.42,7.11,3.93v-1.53c0-1.42,1.08-2.13,2.17-2.13s2.13.71,2.13,2.13Zm-4.34,7.7c0-3.52-2.58-6.21-6.21-6.21s-6.28,2.58-6.28,6.21,2.62,6.25,6.28,6.25,6.21-2.69,6.21-6.25Z"/>
        <path class="cls-2" d="m104.73,9.18c.9,0,1.68.75,1.68,1.68s-.79,1.68-1.68,1.68h-2.81v14.1c0,1.42-1.08,2.17-2.13,2.17s-2.17-.75-2.17-2.17v-14.1h-1.53c-.9,0-1.68-.75-1.68-1.68s.79-1.68,1.68-1.68h1.53v-3.7c0-1.42,1.12-2.13,2.17-2.13s2.13.71,2.13,2.13v3.7h2.81Z"/>
        <path class="cls-2" d="m120.67,10.82c0,.75-.49,1.98-2.39,2.02-2.73.04-4.45,1.5-4.45,4.19v9.61c0,1.42-1.05,2.17-2.13,2.17s-2.13-.75-2.13-2.17v-15.52c0-1.42,1.08-2.13,2.13-2.13s2.13.71,2.13,2.13v.86c.86-1.61,2.28-2.69,4.49-2.88,1.68-.15,2.36.82,2.36,1.72Z"/>
        <path class="cls-2" d="m121.42,18.86c0-5.8,4.41-10.1,10.4-10.1s10.4,4.3,10.4,10.1-4.41,10.1-10.4,10.1-10.4-4.26-10.4-10.1Zm16.64,0c0-3.55-2.66-6.25-6.25-6.25s-6.25,2.69-6.25,6.25,2.69,6.25,6.25,6.25,6.25-2.69,6.25-6.25Z"/>
        <path class="cls-2" d="m164.21,17.22v9.35c0,1.46-1.08,2.24-2.17,2.24s-2.17-.79-2.17-2.24v-8.71c0-4.11-2.36-5.39-4.79-5.39-3.03,0-5.05,1.94-5.09,5.61v8.56c0,1.38-1.08,2.13-2.17,2.13s-2.17-.75-2.17-2.13v-15.52c0-1.42,1.08-2.13,2.17-2.13s2.17.71,2.17,2.13v1.16c1.23-2.21,3.37-3.52,6.36-3.52,4.11,0,7.85,2.51,7.85,8.45Z"/>
      </g>
    </g>
  </g>
</svg>