<?xml version="1.0" encoding="UTF-8"?>
<svg id="Layer_2" data-name="Layer 2" xmlns="http://www.w3.org/2000/svg" viewBox="0 0 273.2 64.66">
  <defs>
    <style>
      .cls-1 {
        stroke-width: 0px;
      }
    </style>
  </defs>
  <g id="Layer_1-2" data-name="Layer 1">
    <g>
      <path class="cls-1" d="m34.2,11c0-6,0-8,6-10V0H7.2v1c6,2,6,4,6,10v3c0,22-2,25-7,22s-8,3-5,6,8,3,11,0,4-12,4-29V3h14v29c0,6,0,8-6,10v1h16v-1c-6-2-6-4-6-10V11Z"/>
      <path class="cls-1" d="m97.34,26.54c.28-.18.57-.35.86-.54,6-4,12-12,16-13v-1h-15v1c6,2,1,8-4,11-3.5,2.1-6.51,2.73-8,2.92v-3.92c0-6,0-8,6-10v-1h-15v1c6,2,6,4,6,10v9c0,6,0,8-6,10v1h15v-1c-6-2-6-4-6-10v-1.21c1.45-.34,4.32-1.16,7.56-2.79,11.33,7.42,10.18,12.09,4.44,14v1h15v-1c-5.65-1.88-5.98-7.31-16.86-15.46Z"/>
      <path class="cls-1" d="m61.2,12v1c6,2,6,4,6,10v2c0,6,0,16-9,16s-9-10-9-16v-2c0-6,0-8,6-10v-1h-15v1c6,2,6,4,6,10v2c0,14,4,18,12,18,3.93,0,6.89-.97,8.89-3.6-.31,9.35-1.48,17.67-5.89,20.6-6,4-7-5-11-7s-7,2-5,6,10,8,17,4,8-14,8-35v-5c0-6,0-8,6-10v-1h-15Z"/>
      <path class="cls-1" d="m208.2,32v-9c0-6,0-8,6-10v-1h-15v1c6,2,6,4,6,10v3h-18v-3c0-6,0-8,6-10v-1h-15v1c6,2,6,4,6,10v9c0,6,0,8-6,10v1h15v-1c-6-2-6-4-6-10v-3h18v3c0,6,0,8-6,10v1h15v-1c-6-2-6-4-6-10Z"/>
      <path class="cls-1" d="m129.2,11c-7,0-15,3.59-15,17s8,16,15,16,15-2.59,15-16-8-17-15-17Zm3,31c-5,1-12-2-14-13s3-15,8-16,12,3,14,14-3,14-8,15Z"/>
      <path class="cls-1" d="m229.2,11c-7,0-15,3.59-15,17s8,16,15,16,15-2.59,15-16-8-17-15-17Zm3,31c-5,1-12-2-14-13s3-15,8-16,12,3,14,14-3,14-8,15Z"/>
      <path class="cls-1" d="m161.2,12c-10,0-15,3.27-15,9.82s6,8.18,13,8.18c.84,0,1.64-.05,2.39-.13-2.59,3-5.72,8.34-9.39,6.13-5-3-8,3-5,6,.94.94,7,4,11,0,3.76-3.76,3.99-13.72,9-12.39v13.39h9v-1c-6-2-6-4-6-10v-9c0-6,0-8,6-10v-1h-15Zm-11,9.82c0-5.73,4.5-7.82,13-7.82h4v12c-5.67,3.27-17,1.55-17-4.18Z"/>
      <path class="cls-1" d="m264.61,28.09c2.94-1.22,5.58-3.75,5.58-8.09,0-6.55-6-8-11-8h-15v1c6,2,6,4,6,10v9c0,6,0,8-6,10v1h9s7,0,7,0c6,0,13-1,13-7,0-5.27-3.09-7.45-8.58-7.91Zm1.58-8.09c0,5.73-3,7-13,7v-13h3.78c3.22,0,9.22.27,9.22,6Zm-10,21h-3v-11c10,0,16,.27,16,6s-11,5-13,5Z"/>
    </g>
  </g>
</svg>